<svg width="301" height="138" viewBox="0 0 301 138" fill="none" xmlns="http://www.w3.org/2000/svg">
<g clip-path="url(#clip0_2248_12686)">
<path d="M237.054 15.3347C237.315 15.3347 237.566 15.1882 237.686 14.9387C238.062 14.163 238.21 13.3873 238.133 12.6388C237.735 8.8092 231.764 6.89984 227.401 5.50579C222.798 4.0358 217.923 3.18961 212.917 2.99433C212.546 2.96721 212.202 3.2764 212.186 3.66695C212.17 4.05207 212.475 4.37753 212.862 4.39381C217.743 4.58366 222.488 5.40273 226.97 6.83475C230.509 7.96843 236.437 9.86152 236.737 12.7852C236.786 13.2788 236.683 13.7996 236.421 14.342C236.252 14.6892 236.399 15.1068 236.748 15.275C236.846 15.3238 236.95 15.3455 237.054 15.3455V15.3347Z" fill="#408F95"/>
<path d="M158.399 19.6144C158.399 19.6144 158.454 19.6144 158.481 19.6144C159.61 19.4842 160.739 19.251 161.835 18.9147C163.291 18.4699 164.376 17.9274 164.834 17.6996L164.987 17.6237C169.955 15.2261 175.081 13.013 180.218 11.0548C184.946 9.25395 188.687 7.82736 193.716 6.57977C199.022 5.26708 204.519 4.45886 210.048 4.18764C210.436 4.16594 210.736 3.84049 210.714 3.45536C210.692 3.07023 210.37 2.7719 209.978 2.79359C204.355 3.07023 198.771 3.8893 193.372 5.22911C188.257 6.4984 184.488 7.93584 179.711 9.75299C174.536 11.7274 169.372 13.9514 164.371 16.3652L164.202 16.4466C163.733 16.6798 162.757 17.168 161.415 17.5803C160.401 17.8895 159.359 18.1064 158.312 18.2258C157.925 18.2692 157.652 18.6163 157.696 18.996C157.734 19.354 158.039 19.6144 158.394 19.6144H158.399Z" fill="#408F95"/>
<path d="M224.075 27.7075C224.184 27.7075 224.293 27.6804 224.396 27.6316C225.601 27.0078 227.401 26.0531 229.108 25.0333C229.561 24.7621 230.406 24.2631 231.497 23.5308C231.829 23.3084 232.189 23.0643 232.56 22.7931C233.891 21.8492 235.178 20.824 236.394 19.75C236.426 19.7175 236.459 19.6849 236.486 19.647C236.546 19.571 236.639 19.4571 236.759 19.3161C237.992 17.8298 239.153 16.2839 238.668 15.1773C238.515 14.8248 238.139 14.3962 237.234 14.3474C236.841 14.3203 236.514 14.6186 236.492 15.0038C236.47 15.3889 236.765 15.7198 237.152 15.7415C237.266 15.7469 237.337 15.7632 237.381 15.774C237.381 16.0235 237.125 16.6799 235.674 18.4265C235.565 18.5567 235.478 18.6652 235.412 18.7465C234.245 19.7717 233.013 20.7481 231.742 21.654C231.377 21.9143 231.033 22.1476 230.711 22.37C229.653 23.0806 228.83 23.5687 228.388 23.8345C226.709 24.8326 224.942 25.7764 223.753 26.3894C223.409 26.5684 223.273 26.9861 223.453 27.3332C223.578 27.5719 223.824 27.7129 224.075 27.7129V27.7075Z" fill="#408F95"/>
<path d="M196.115 31.781C202.975 31.781 209.563 31.0107 209.645 30.9999C213.784 30.4846 217.961 29.7252 222.051 28.7434C222.428 28.6511 222.662 28.2769 222.569 27.9026C222.477 27.5283 222.1 27.2951 221.724 27.3873C217.683 28.3582 213.56 29.1068 209.476 29.6113C209.388 29.6221 200.112 30.707 192.194 30.2839C189.74 30.1537 187.248 29.8553 184.794 29.3889C183.698 29.1827 183.103 29.0363 180.611 28.4342L177.595 27.7019C176.608 27.4632 175.747 27.2462 174.983 27.0564C172.704 26.4868 171.198 26.1071 169.737 26.0041C167.572 25.8522 165.363 26.0366 163.182 26.5574C162.806 26.6441 162.571 27.0239 162.664 27.3981C162.751 27.7724 163.127 28.0057 163.509 27.9134C165.554 27.4307 167.616 27.2571 169.639 27.3981C170.98 27.4903 172.36 27.8375 174.639 28.4125C175.408 28.6078 176.275 28.8247 177.263 29.0634L180.278 29.7957C182.738 30.3924 183.398 30.5551 184.532 30.7666C187.046 31.2385 189.598 31.5477 192.118 31.6833C193.432 31.7539 194.779 31.781 196.115 31.781Z" fill="#408F95"/>
<path d="M156.191 19.6631C156.491 19.6631 156.769 19.4678 156.862 19.1695C156.976 18.8006 156.769 18.4101 156.398 18.2961C154.762 17.7971 146.233 15.2477 139.203 14.2171C135.773 13.7126 133.259 13.6638 130.522 14.0435C129.627 14.1682 128.733 14.3418 127.86 14.5534C127.484 14.6456 127.255 15.0253 127.348 15.3996C127.44 15.7738 127.817 16.0071 128.199 15.9094C129.022 15.7087 129.873 15.546 130.723 15.4267C133.319 15.0633 135.719 15.1121 139.007 15.5948C145.933 16.6146 154.375 19.1315 155.994 19.6305C156.065 19.6522 156.131 19.6631 156.202 19.6631H156.191Z" fill="#408F95"/>
<path d="M135.991 45.0493C136.041 45.0493 136.09 45.0493 136.139 45.033C139.28 44.3604 144.624 41.773 146.576 39.9884C148.262 38.7354 149.609 37.7427 150.754 36.8966C154.718 33.9729 156.36 32.7687 161.568 28.4075C161.862 28.158 161.9 27.7186 161.655 27.4257C161.404 27.1328 160.963 27.0948 160.668 27.3389C155.493 31.6675 153.862 32.8717 149.919 35.7737C148.763 36.6253 147.405 37.6234 145.704 38.8927C145.682 38.909 145.666 38.9253 145.644 38.9415C143.888 40.5688 138.756 43.0423 135.839 43.6661C135.457 43.7475 135.217 44.1163 135.299 44.496C135.37 44.8215 135.659 45.0493 135.986 45.0493H135.991Z" fill="#408F95"/>
<path d="M135.991 45.0493C136.177 45.0493 136.368 44.9734 136.504 44.8269C138.331 42.8904 140.676 39.6304 141.456 35.0957C141.69 33.7396 142.235 30.5664 140.954 26.9592C139.781 23.6667 137.736 21.7627 135.37 19.555C133.292 17.6185 130.931 15.9587 128.346 14.6135C128.002 14.4345 127.577 14.5647 127.397 14.9064C127.217 15.2481 127.348 15.6712 127.691 15.8502C130.162 17.1358 132.419 18.7251 134.404 20.5748C136.728 22.7391 138.565 24.4532 139.623 27.4257C140.785 30.6911 140.283 33.6148 140.065 34.8624C139.345 39.0554 137.169 42.0768 135.473 43.8722C135.206 44.1543 135.222 44.5937 135.506 44.8595C135.642 44.9842 135.817 45.0493 135.986 45.0493H135.991Z" fill="#408F95"/>
<path d="M145.791 23.2272C145.998 23.2272 146.2 23.1404 146.336 22.9668C146.582 22.6685 146.533 22.2291 146.233 21.985C145.039 21.0249 143.73 20.2058 142.345 19.5603C140.676 18.7792 138.903 18.2422 137.077 17.9602C136.695 17.9005 136.335 18.1609 136.275 18.546C136.215 18.9257 136.477 19.2837 136.864 19.3434C138.56 19.6037 140.201 20.1028 141.75 20.8296C143.032 21.4317 144.248 22.1857 145.355 23.0807C145.486 23.1838 145.638 23.238 145.797 23.238L145.791 23.2272Z" fill="#408F95"/>
<path d="M142.917 38.3882C143.064 38.3882 143.217 38.3393 143.348 38.2417C144.864 37.0755 147.558 34.564 148.518 30.8429C148.812 29.693 149.434 27.2954 148.349 24.8491C148.196 24.5073 148.016 24.171 147.814 23.8564C147.602 23.531 147.171 23.4387 146.844 23.6503C146.516 23.8618 146.424 24.2904 146.636 24.6158C146.8 24.8653 146.947 25.1366 147.067 25.4132C147.956 27.4202 147.438 29.4218 147.16 30.5012C146.304 33.8209 143.866 36.0882 142.492 37.1406C142.186 37.3738 142.126 37.8132 142.366 38.1224C142.503 38.3014 142.71 38.3936 142.923 38.3936L142.917 38.3882Z" fill="#408F95"/>
<path d="M212.11 23.3951C212.257 23.3951 212.404 23.3951 212.557 23.3842C215.747 23.2486 218.005 21.719 219.068 20.8185C219.363 20.569 219.401 20.1296 219.15 19.8367C218.899 19.5438 218.458 19.5058 218.163 19.7554C217.236 20.5419 215.267 21.8708 212.502 21.9902C209.727 22.1041 207.84 20.9487 206.591 20.1785C205.909 19.7554 205.647 19.5004 205.56 19.3865C205.767 19.1533 206.662 18.7464 209.563 18.2311C212.17 17.7701 214.913 17.6562 217.716 17.8948C218.103 17.9219 218.441 17.6453 218.474 17.2602C218.507 16.8751 218.223 16.5387 217.836 16.5062C214.913 16.2567 212.044 16.376 209.318 16.8588C206.651 17.3307 204.246 17.8786 204.131 19.3214C204.077 19.9778 204.595 20.5907 205.855 21.3664C207.104 22.1366 209.154 23.3951 212.115 23.3951H212.11Z" fill="#408F95"/>
<path d="M224.445 24.4096C224.691 24.4096 224.931 24.2794 225.062 24.0516C225.253 23.7153 225.127 23.2868 224.789 23.1024C222.635 21.9144 220.841 20.3251 219.45 18.394C218.714 17.3688 218.098 16.2514 217.629 15.0689C217.487 14.7109 217.078 14.5374 216.718 14.6784C216.358 14.8194 216.184 15.2262 216.325 15.5842C216.843 16.8698 217.509 18.0903 218.31 19.2023C219.821 21.3069 221.773 23.0318 224.107 24.3228C224.216 24.3825 224.331 24.4096 224.445 24.4096Z" fill="#408F95"/>
<path d="M230.897 10.5503C230.793 9.94277 230.215 9.53594 229.61 9.63901C228.999 9.74207 228.59 10.317 228.694 10.9191C228.797 11.5267 229.375 11.9335 229.981 11.8304C230.591 11.7274 231 11.1524 230.897 10.5503Z" fill="#408F95"/>
<path d="M199.431 36.8803C200.658 36.864 201.852 36.7664 203.03 36.5874C204.644 36.3433 206.247 35.9419 207.791 35.394C213.462 33.387 216.565 31.6567 221.702 28.7927C222.04 28.6028 222.16 28.1797 221.97 27.8434C221.779 27.5071 221.353 27.3878 221.015 27.5776C215.769 30.5013 212.879 32.1123 207.316 34.0814C205.855 34.5967 204.344 34.9764 202.817 35.2096C201.705 35.3778 200.576 35.47 199.452 35.4863C198.171 35.4374 197.555 35.2639 197.277 35.1391C197.62 34.9059 198.498 34.4502 200.696 33.7613C201.067 33.6474 201.268 33.2514 201.154 32.888C201.039 32.5192 200.641 32.313 200.276 32.4324C196.742 33.5389 195.548 34.2983 195.711 35.3235C195.919 36.6037 197.936 36.8261 199.436 36.8857L199.431 36.8803Z" fill="#408F95"/>
<path d="M197.288 33.8315C197.724 33.8315 198.138 33.8098 198.531 33.7881C204.164 33.441 208.712 32.2476 208.903 32.1934C211.025 31.6292 213.151 30.9404 215.224 30.1484C215.584 30.0074 215.764 29.606 215.627 29.248C215.486 28.89 215.082 28.711 214.722 28.8466C212.693 29.6222 210.616 30.2949 208.543 30.8481C208.358 30.897 203.946 32.0578 198.449 32.3941C197.184 32.47 195.821 32.5026 194.223 31.9384C193.356 31.6347 192.532 31.1899 191.78 30.6203C191.469 30.3871 191.033 30.4467 190.798 30.7559C190.564 31.0651 190.624 31.4991 190.934 31.7323C191.801 32.3886 192.75 32.8985 193.754 33.2511C195.057 33.7122 196.24 33.8315 197.293 33.8315H197.288Z" fill="#408F95"/>
<path d="M174.116 36.8798C175.948 36.8798 177.77 36.7008 179.575 36.3428C183.561 35.5455 187.411 33.8422 190.711 31.4176C191.022 31.1897 191.087 30.7504 190.858 30.4412C190.629 30.132 190.187 30.0669 189.876 30.2947C186.741 32.6001 183.087 34.2219 179.302 34.9759C176.456 35.5455 173.549 35.6377 170.659 35.2634C170.768 34.3304 171.084 32.676 171.957 31.4827C172.207 31.1409 172.622 30.5714 173.353 30.1103C173.543 29.9855 173.691 29.915 174.089 29.7198L174.367 29.5841C175.163 29.1882 175.807 28.8573 176.232 28.6349C176.576 28.4559 176.706 28.0328 176.526 27.6911C176.347 27.3493 175.921 27.2191 175.578 27.3981C175.158 27.6205 174.525 27.946 173.74 28.3311L173.467 28.4667C173.047 28.6729 172.856 28.7651 172.595 28.9332C171.64 29.5407 171.106 30.2676 170.822 30.6582C169.464 32.5024 169.235 35.079 169.197 35.8221C169.181 36.1801 169.437 36.4947 169.792 36.549C171.231 36.7714 172.676 36.8853 174.122 36.8853L174.116 36.8798Z" fill="#408F95"/>
<path d="M167.997 14.8521C169.028 14.8521 170.124 14.7816 171.346 14.6514C171.733 14.6081 172.011 14.2663 171.967 13.8812C171.924 13.4961 171.58 13.214 171.193 13.2628C170.015 13.3876 168.968 13.4527 167.986 13.4581C167.599 13.4581 167.288 13.7727 167.288 14.1578C167.288 14.543 167.605 14.8521 167.992 14.8521H167.997Z" fill="#408F95"/>
<path d="M167.376 6.927C167.447 6.927 167.523 6.91615 167.594 6.89445C168.379 6.63409 169.164 6.36829 169.95 6.09708C172.115 5.35395 174.356 4.5837 176.679 4.07381C186.79 2.02884 196.639 1.1501 205.942 1.46471C206.324 1.47556 206.657 1.17723 206.667 0.792099C206.678 0.406972 206.378 0.0815135 205.991 0.0706649C196.584 -0.24937 186.621 0.634794 176.39 2.70688C173.974 3.23846 171.7 4.01957 169.497 4.77897C168.717 5.04476 167.937 5.31598 167.158 5.57092C166.787 5.69026 166.59 6.08623 166.71 6.44966C166.809 6.74257 167.081 6.93242 167.376 6.93242V6.927Z" fill="#408F95"/>
<path d="M220.939 5.2941C221.206 5.2941 221.462 5.14222 221.577 4.88728C221.735 4.5347 221.577 4.12245 221.228 3.96515C219.445 3.15692 217.596 2.46261 215.726 1.89306C213.31 1.15535 210.817 0.618344 208.309 0.292886C207.922 0.244067 207.573 0.509858 207.524 0.894984C207.475 1.28011 207.742 1.62727 208.129 1.67609C210.556 1.9907 212.977 2.51143 215.317 3.22744C217.127 3.78072 218.927 4.45333 220.65 5.23444C220.743 5.27783 220.841 5.29953 220.939 5.29953V5.2941Z" fill="#408F95"/>
<path d="M207.033 3.3903C207.262 3.3903 207.491 3.27639 207.627 3.07027C207.834 2.74481 207.742 2.31086 207.414 2.10474C207.267 2.01252 207.049 1.87692 206.782 1.72504C205.778 1.16091 204.693 0.732386 203.559 0.444897C202.681 0.2225 201.776 0.0923164 200.865 0.0543462C200.478 0.0380733 200.15 0.336411 200.134 0.721537C200.118 1.10666 200.418 1.43212 200.805 1.4484C201.623 1.48094 202.43 1.60028 203.215 1.79555C204.23 2.05049 205.2 2.43562 206.095 2.93466C206.335 3.07027 206.525 3.1896 206.662 3.27097C206.776 3.34691 206.907 3.37945 207.038 3.37945L207.033 3.3903Z" fill="#408F95"/>
<path d="M197.255 4.00306C197.484 4.00306 197.713 3.88915 197.844 3.68303C198.051 3.35757 197.958 2.92905 197.631 2.7175C197.484 2.62529 197.266 2.48968 196.998 2.3378C195.995 1.77367 194.91 1.34515 193.77 1.05766C192.892 0.835263 191.987 0.70508 191.076 0.66711C190.689 0.645412 190.362 0.949174 190.345 1.3343C190.329 1.71943 190.629 2.04489 191.016 2.06116C191.834 2.0937 192.641 2.21304 193.426 2.40831C194.441 2.66326 195.411 3.04838 196.306 3.54742C196.546 3.68303 196.737 3.80236 196.873 3.88373C196.987 3.95967 197.124 3.99221 197.249 3.99221L197.255 4.00306Z" fill="#408F95"/>
<path d="M188.235 5.27262C188.464 5.27262 188.693 5.15871 188.829 4.95259C189.036 4.62713 188.944 4.19861 188.617 3.98706C188.469 3.89485 188.251 3.75924 187.984 3.60736C186.975 3.04323 185.89 2.61471 184.756 2.32722C183.878 2.10482 182.972 1.97464 182.062 1.93667C181.674 1.9204 181.347 2.21873 181.331 2.60386C181.314 2.98899 181.614 3.31445 182.002 3.33072C182.82 3.36327 183.627 3.4826 184.412 3.67788C185.426 3.93282 186.397 4.31795 187.291 4.81698C187.531 4.95259 187.722 5.07192 187.859 5.15329C187.973 5.22923 188.104 5.26178 188.235 5.26178V5.27262Z" fill="#408F95"/>
<path d="M174.83 34.0705H174.847C177.246 34.0108 179.526 33.4738 181.614 32.4649C182.525 32.0255 183.398 31.4993 184.21 30.8972C184.521 30.664 184.586 30.2301 184.352 29.9209C184.117 29.6117 183.681 29.5466 183.37 29.7798C182.629 30.3331 181.827 30.8159 181.004 31.2119C179.095 32.1286 177.012 32.6222 174.814 32.6764C174.427 32.6873 174.121 33.0073 174.127 33.3924C174.138 33.7721 174.449 34.0759 174.83 34.0759V34.0705Z" fill="#408F95"/>
<path d="M176.096 31.2548C176.177 31.2548 176.259 31.2385 176.336 31.2114L180.333 29.7577C180.698 29.6275 180.884 29.2261 180.753 28.8627C180.622 28.4993 180.213 28.3148 179.853 28.445L175.856 29.8987C175.49 30.0289 175.305 30.4303 175.436 30.7937C175.539 31.0758 175.807 31.2548 176.096 31.2548Z" fill="#408F95"/>
<path d="M166.138 14.7867C166.514 14.7867 166.83 14.4884 166.841 14.1087C166.852 13.7235 166.547 13.4035 166.16 13.3926C163.515 13.3167 162.386 12.8068 162.2 11.5809C162.702 9.90481 163.989 8.54331 166.127 7.4259C166.47 7.2469 166.601 6.8238 166.421 6.48207C166.241 6.14034 165.816 6.01016 165.472 6.18916C162.915 7.52354 161.388 9.2105 160.81 11.3423C160.788 11.4236 160.783 11.5104 160.788 11.5918C161.082 14.6402 164.611 14.7433 166.116 14.7867C166.121 14.7867 166.132 14.7867 166.138 14.7867Z" fill="#408F95"/>
<path d="M137.104 128.67C137.327 128.67 137.545 128.562 137.682 128.367C137.998 127.906 138.172 127.417 138.2 126.918C138.325 124.467 134.922 122.774 132.436 121.537C129.867 120.257 127.08 119.324 124.157 118.76C123.776 118.69 123.41 118.934 123.334 119.313C123.257 119.693 123.508 120.057 123.89 120.133C126.688 120.675 129.349 121.565 131.808 122.785C133.706 123.729 136.875 125.307 136.798 126.848C136.787 127.086 136.695 127.331 136.526 127.575C136.307 127.895 136.389 128.329 136.706 128.546C136.826 128.627 136.967 128.67 137.104 128.67Z" fill="#408F95"/>
<path d="M127.626 134.968C127.691 134.968 127.762 134.957 127.827 134.935C129.131 134.539 130.418 134.084 131.65 133.579C132.19 133.357 132.926 133.053 133.881 132.576C134.748 132.136 135.604 131.653 136.411 131.133C136.449 131.106 136.487 131.078 136.52 131.046C136.558 131.008 136.624 130.954 136.7 130.883C137.616 130.07 138.494 129.202 138.271 128.361C138.205 128.117 137.993 127.688 137.289 127.542C136.913 127.46 136.536 127.699 136.455 128.079C136.389 128.377 136.531 128.67 136.776 128.822C136.629 129.017 136.335 129.337 135.762 129.842C135.697 129.901 135.637 129.95 135.593 129.994C134.84 130.476 134.05 130.927 133.243 131.333C132.337 131.789 131.628 132.082 131.11 132.293C129.922 132.782 128.678 133.226 127.418 133.606C127.048 133.72 126.84 134.111 126.949 134.479C127.042 134.783 127.32 134.973 127.62 134.973L127.626 134.968Z" fill="#408F95"/>
<path d="M121.534 135.364C123.394 135.364 125.264 135.288 127.118 135.13C127.506 135.098 127.789 134.761 127.756 134.376C127.724 133.991 127.38 133.709 126.998 133.742C124.572 133.942 122.118 134.013 119.702 133.942C119.653 133.942 114.178 133.747 109.635 132.798C108.233 132.505 106.821 132.114 105.447 131.626C104.836 131.409 104.503 131.274 103.107 130.699L101.422 130.004C100.948 129.809 100.528 129.63 100.14 129.467C98.9189 128.952 98.0355 128.578 96.9775 128.307C95.5378 127.932 94.0163 127.759 92.4458 127.797C92.0586 127.807 91.7532 128.128 91.7586 128.513C91.7695 128.898 92.0804 129.202 92.4785 129.196C93.9182 129.164 95.3088 129.321 96.623 129.657C97.5828 129.907 98.4227 130.259 99.5897 130.753C99.9823 130.921 100.408 131.1 100.888 131.295L102.573 131.99C103.958 132.559 104.329 132.711 104.978 132.939C106.412 133.443 107.884 133.856 109.346 134.159C114.014 135.13 119.429 135.326 119.658 135.331C120.28 135.347 120.907 135.358 121.529 135.358L121.534 135.364Z" fill="#408F95"/>
<path d="M91.7751 124.146C91.7751 124.146 91.7915 124.146 91.8024 124.146C92.195 124.13 92.5931 124.092 92.9803 124.038C93.9019 123.902 94.5945 123.68 94.8944 123.582L94.9762 123.555C98.0738 122.606 101.248 121.776 104.405 121.098C107.312 120.474 109.608 119.98 112.629 119.704C115.819 119.411 119.069 119.432 122.292 119.769C122.679 119.807 123.023 119.53 123.061 119.145C123.099 118.76 122.821 118.418 122.434 118.38C119.118 118.038 115.775 118.017 112.498 118.315C109.39 118.597 107.055 119.102 104.105 119.736C100.904 120.425 97.692 121.26 94.5563 122.226L94.4527 122.258C94.1909 122.345 93.5747 122.541 92.7676 122.66C92.4513 122.709 92.1296 122.736 91.8133 122.752C91.2952 122.66 90.7771 122.53 90.2754 122.362C89.6646 122.161 89.2338 121.955 89.0702 121.879C87.4069 121.103 83.5786 119.682 80.2575 118.727C78.3816 118.185 76.9419 117.87 75.1477 117.843C74.6078 117.832 74.057 117.854 73.5226 117.903C73.1354 117.935 72.8518 118.277 72.8845 118.662C72.9173 119.047 73.2608 119.329 73.648 119.297C74.1388 119.253 74.6351 119.237 75.1313 119.243C76.7619 119.264 78.1034 119.563 79.8649 120.072C83.4587 121.109 87.1124 122.513 88.454 123.137C88.6557 123.229 89.1411 123.457 89.8282 123.685C90.4226 123.88 91.0334 124.032 91.6497 124.141C91.6878 124.146 91.726 124.152 91.7696 124.152L91.7751 124.146Z" fill="#408F95"/>
<path d="M75.6112 136.953C75.7039 136.953 75.8021 136.931 75.8948 136.893L83.6386 133.482C85.062 132.771 86.4417 132.012 87.7723 131.214C88.7703 130.618 89.7737 129.977 90.7389 129.327C91.0607 129.11 91.1425 128.676 90.9243 128.356C90.7062 128.036 90.2699 127.954 89.9482 128.171C88.9993 128.811 88.0232 129.435 87.047 130.021C85.7436 130.802 84.3912 131.545 83.0333 132.223L75.3222 135.619C74.9677 135.776 74.8096 136.188 74.9623 136.541C75.0768 136.801 75.3331 136.959 75.6058 136.959L75.6112 136.953Z" fill="#408F95"/>
<path d="M75.6113 136.953C75.8131 136.953 76.0094 136.867 76.1457 136.704C77.5636 135.033 78.6652 133.189 79.4232 131.225C80.0613 129.576 80.563 128.274 80.3503 126.566C80.1104 124.635 79.096 123.355 77.8145 121.733L77.7054 121.592C76.6529 120.257 75.4095 119.064 74.008 118.039C73.6972 117.811 73.2554 117.876 73.0264 118.185C72.7973 118.494 72.8628 118.934 73.1736 119.162C74.4716 120.116 75.6277 121.223 76.5984 122.454L76.7074 122.595C77.8963 124.103 78.7579 125.193 78.9542 126.739C79.1233 128.101 78.7197 129.142 78.109 130.721C77.4055 132.538 76.3802 134.247 75.066 135.803C74.8151 136.096 74.8533 136.541 75.1478 136.785C75.2787 136.894 75.4422 136.948 75.6004 136.948L75.6113 136.953Z" fill="#408F95"/>
<path d="M122.734 131.203C124.343 131.203 125.586 130.601 126.23 130.211C126.557 130.01 126.66 129.576 126.459 129.251C126.257 128.925 125.826 128.822 125.493 129.023C124.915 129.375 123.716 129.945 122.178 129.777C120.64 129.609 119.691 128.8 119.058 128.263C118.966 128.187 118.895 128.117 118.835 128.063C119.211 127.976 119.86 127.922 120.782 127.9C122.319 127.862 123.901 128.041 125.482 128.421C125.859 128.513 126.24 128.28 126.333 127.905C126.426 127.531 126.191 127.151 125.815 127.059C124.114 126.647 122.407 126.457 120.749 126.495C118.971 126.538 117.482 126.658 117.237 127.688C117.09 128.318 117.613 128.865 118.148 129.321C118.818 129.891 120.062 130.943 122.025 131.16C122.27 131.187 122.505 131.198 122.734 131.198V131.203Z" fill="#408F95"/>
<path d="M128.945 132.825C129.152 132.825 129.36 132.733 129.502 132.554C129.741 132.25 129.681 131.811 129.376 131.572C128.264 130.715 127.391 129.663 126.775 128.453C126.448 127.813 126.202 127.13 126.039 126.419C125.951 126.045 125.575 125.812 125.199 125.898C124.822 125.985 124.588 126.36 124.675 126.734C124.866 127.553 125.15 128.339 125.526 129.083C126.235 130.482 127.244 131.692 128.52 132.679C128.645 132.777 128.798 132.825 128.951 132.825H128.945Z" fill="#408F95"/>
<path d="M133.226 126.408C133.226 126.408 133.237 126.408 133.248 126.408C133.995 126.397 134.601 125.779 134.59 125.036C134.579 124.287 133.979 123.69 133.21 123.701C132.845 123.701 132.507 123.853 132.256 124.114C132.005 124.374 131.868 124.716 131.874 125.074C131.885 125.811 132.496 126.408 133.232 126.408H133.226ZM133.27 125.052C133.27 125.052 133.254 125.09 133.226 125.095C133.205 125.095 133.183 125.074 133.183 125.052H133.27ZM133.27 125.052H133.183C133.183 125.052 133.21 124.992 133.226 125.009C133.248 125.009 133.27 125.025 133.27 125.052Z" fill="#408F95"/>
<path d="M115.339 138C116.315 138 117.292 137.908 118.251 137.723C121.758 137.056 123.727 136.324 126.988 135.109C127.353 134.973 127.533 134.572 127.397 134.208C127.26 133.845 126.857 133.666 126.491 133.801C123.187 135.033 121.371 135.705 117.984 136.351C117.106 136.519 116.234 136.6 115.317 136.6C114.668 136.6 114.014 136.552 113.371 136.465C112.972 136.41 112.607 136.286 112.394 136.183C112.667 135.933 113.349 135.478 114.745 134.881C115.099 134.729 115.268 134.317 115.11 133.964C114.957 133.612 114.543 133.443 114.189 133.601C111.047 134.94 110.758 135.798 110.889 136.454C111.096 137.479 112.689 137.783 113.169 137.848C113.883 137.946 114.636 137.994 115.328 138H115.339Z" fill="#408F95"/>
<path d="M100.953 135.782C101.204 135.782 101.455 135.776 101.706 135.765C104.138 135.657 106.576 134.995 108.752 133.856C109.095 133.677 109.226 133.254 109.046 132.912C108.866 132.57 108.441 132.44 108.097 132.619C106.101 133.661 103.871 134.268 101.64 134.366C100.064 134.436 98.4882 134.263 96.9558 133.851C97.1522 133.254 97.4685 132.592 97.8993 132.164C98.0738 131.99 98.3301 131.73 98.75 131.551C98.8754 131.496 98.9681 131.469 99.1808 131.399L99.3553 131.344C99.857 131.187 100.261 131.052 100.533 130.959C100.899 130.835 101.095 130.439 100.97 130.07C100.844 129.706 100.446 129.511 100.075 129.636C99.8134 129.728 99.4153 129.858 98.93 130.016L98.7555 130.07C98.4664 130.162 98.3464 130.2 98.1774 130.276C97.523 130.563 97.1031 130.981 96.9013 131.182C95.887 132.196 95.5052 133.742 95.4125 134.192C95.3416 134.545 95.5434 134.892 95.887 135C97.5339 135.521 99.2354 135.782 100.948 135.782H100.953Z" fill="#408F95"/>
<path d="M98.8808 122.411C99.2517 122.411 99.5625 122.118 99.5843 121.744C99.6007 121.358 99.3007 121.033 98.9135 121.011C98.2264 120.979 97.6211 120.925 97.0594 120.838C96.6777 120.783 96.3177 121.044 96.2632 121.424C96.2087 121.803 96.4704 122.161 96.8522 122.215C97.4629 122.308 98.1174 122.367 98.8481 122.4C98.859 122.4 98.8699 122.4 98.8808 122.4V122.411Z" fill="#408F95"/>
<path d="M96.9557 122.232C97.3211 122.232 97.632 121.949 97.6538 121.581C97.681 121.196 97.3866 120.865 96.9994 120.838C95.1943 120.724 94.289 120.138 94.2127 119.644C94.1418 119.189 94.7689 118.424 96.3122 117.811C96.6722 117.67 96.8467 117.263 96.7049 116.905C96.5631 116.547 96.1541 116.373 95.7942 116.514C93.7328 117.328 92.6203 118.576 92.8275 119.861C93.0402 121.196 94.5672 122.08 96.9121 122.226C96.9285 122.226 96.9448 122.226 96.9557 122.226V122.232Z" fill="#408F95"/>
<path d="M120.258 117.827C120.58 117.827 120.869 117.605 120.94 117.285C121.027 116.91 120.787 116.536 120.411 116.449C114.548 115.131 108.632 114.757 102.818 115.337C101.188 115.5 99.5407 115.739 97.9265 116.053C97.5448 116.129 97.2994 116.493 97.3703 116.872C97.4466 117.252 97.812 117.496 98.1937 117.426C99.7643 117.122 101.368 116.889 102.96 116.726C108.621 116.162 114.39 116.525 120.1 117.811C120.155 117.822 120.204 117.827 120.253 117.827H120.258Z" fill="#408F95"/>
<path d="M128.629 121.391C128.858 121.391 129.082 121.277 129.218 121.076C129.431 120.751 129.338 120.322 129.016 120.111C128.04 119.476 127.015 118.896 125.968 118.397C124.97 117.914 123.923 117.491 122.865 117.138C122.619 117.057 122.407 116.986 122.259 116.943C121.894 116.829 121.496 117.035 121.381 117.399C121.267 117.768 121.474 118.158 121.84 118.272C121.981 118.315 122.178 118.38 122.412 118.456C123.416 118.793 124.403 119.194 125.352 119.65C126.344 120.127 127.315 120.675 128.242 121.277C128.362 121.353 128.493 121.391 128.624 121.391H128.629Z" fill="#408F95"/>
<path d="M117.908 117.984C118.017 117.984 118.12 117.941 118.197 117.854C118.339 117.697 118.322 117.453 118.164 117.312C118.088 117.246 117.973 117.149 117.831 117.035C117.297 116.617 116.708 116.276 116.075 116.01C115.59 115.804 115.072 115.646 114.549 115.543C114.341 115.5 114.134 115.635 114.096 115.847C114.058 116.059 114.189 116.259 114.401 116.297C114.876 116.389 115.339 116.53 115.776 116.715C116.343 116.954 116.877 117.268 117.357 117.637C117.482 117.735 117.586 117.827 117.657 117.887C117.728 117.952 117.821 117.984 117.913 117.984H117.908Z" fill="#408F95"/>
<path d="M114.254 117.87C114.379 117.87 114.505 117.805 114.581 117.691C114.696 117.512 114.647 117.274 114.467 117.16C114.385 117.106 114.265 117.03 114.118 116.943C113.567 116.612 112.972 116.303 112.367 116.037C111.893 115.826 111.413 115.641 110.927 115.478C110.726 115.413 110.508 115.522 110.437 115.722C110.371 115.923 110.48 116.14 110.682 116.211C111.14 116.363 111.604 116.542 112.051 116.742C112.629 116.997 113.191 117.29 113.72 117.605C113.861 117.686 113.976 117.762 114.052 117.811C114.118 117.854 114.189 117.87 114.259 117.87H114.254Z" fill="#408F95"/>
<path d="M109.635 117.876C109.755 117.876 109.869 117.821 109.946 117.718C110.071 117.55 110.039 117.306 109.864 117.181C109.782 117.122 109.668 117.035 109.52 116.937C108.975 116.568 108.386 116.248 107.764 115.977C107.285 115.771 106.788 115.592 106.287 115.456C106.079 115.397 105.867 115.521 105.812 115.728C105.758 115.934 105.878 116.145 106.085 116.199C106.548 116.324 107.012 116.487 107.459 116.682C108.037 116.932 108.582 117.23 109.09 117.572C109.226 117.664 109.335 117.74 109.406 117.794C109.477 117.843 109.553 117.87 109.635 117.87V117.876Z" fill="#408F95"/>
<path d="M100.708 132.728C100.708 132.728 100.746 132.728 100.762 132.728L103.876 132.299C104.089 132.272 104.236 132.077 104.203 131.865C104.176 131.654 103.974 131.507 103.767 131.54L100.653 131.968C100.441 131.995 100.293 132.191 100.326 132.402C100.353 132.592 100.517 132.733 100.708 132.733V132.728Z" fill="#408F95"/>
<path d="M80.6828 132.093C80.7864 132.093 80.8954 132.066 80.9936 132.001C81.9316 131.409 82.7659 130.682 83.464 129.842C84.402 128.719 85.28 127.661 85.1654 126.272C85.0455 124.857 83.9602 123.956 82.8096 123.002C81.8661 122.221 80.8027 121.602 79.6412 121.174C79.3412 121.06 79.0086 121.212 78.894 121.51C78.7795 121.808 78.9322 122.139 79.2321 122.253C80.2683 122.638 81.2226 123.191 82.0625 123.886C83.1041 124.748 83.9275 125.432 84.0093 126.37C84.0857 127.287 83.4204 128.09 82.5751 129.104C81.9534 129.853 81.2117 130.498 80.3719 131.03C80.0992 131.198 80.0229 131.556 80.1919 131.827C80.301 132.001 80.4919 132.093 80.6828 132.093Z" fill="#408F95"/>
<path d="M63.5102 108.47C63.8265 108.47 64.11 108.259 64.1918 107.939C64.3282 107.396 64.3227 106.881 64.17 106.403C63.4284 104.06 59.6437 103.653 56.8843 103.36C54.0267 103.051 51.0873 103.143 48.1534 103.626C47.7717 103.691 47.5099 104.049 47.5753 104.429C47.6408 104.809 47.9952 105.069 48.3824 105.004C51.1909 104.537 54.0049 104.456 56.7316 104.749C58.8366 104.977 62.3649 105.357 62.8285 106.827C62.8994 107.054 62.8994 107.315 62.8285 107.602C62.7358 107.976 62.9648 108.356 63.3411 108.448C63.3956 108.465 63.4556 108.47 63.5102 108.47Z" fill="#408F95"/>
<path d="M56.8352 117.653C56.9824 117.653 57.1351 117.605 57.2605 117.512C58.3458 116.693 59.3874 115.82 60.369 114.914C60.7998 114.518 61.3888 113.976 62.1086 113.2C62.7685 112.49 63.3956 111.741 63.9737 110.971C64.0009 110.933 64.0227 110.895 64.0445 110.851C64.0664 110.803 64.1045 110.732 64.1536 110.64C64.7317 109.56 65.2497 108.443 64.7426 107.727C64.5953 107.521 64.2463 107.195 63.5374 107.298C63.1556 107.353 62.8884 107.711 62.943 108.09C62.9866 108.394 63.2211 108.622 63.5047 108.676C63.4392 108.91 63.2702 109.311 62.9102 109.989C62.8666 110.065 62.8339 110.135 62.8066 110.184C62.2667 110.9 61.6832 111.595 61.0725 112.251C60.3908 112.989 59.8236 113.509 59.4092 113.889C58.4657 114.762 57.4514 115.603 56.4044 116.4C56.0935 116.634 56.039 117.073 56.2735 117.377C56.4098 117.556 56.6225 117.653 56.8297 117.653H56.8352Z" fill="#408F95"/>
<path d="M21.8625 124.439C21.9497 124.439 22.037 124.423 22.1242 124.39C23.4603 123.859 24.8237 123.522 26.1706 123.387C27.1577 123.289 28.0739 123.327 29.3391 123.387C29.7644 123.408 30.228 123.425 30.7406 123.446L32.5675 123.511C34.0617 123.566 34.4598 123.582 35.1469 123.566C36.6684 123.539 38.1899 123.414 39.6678 123.191C44.3795 122.486 49.5275 120.788 49.7456 120.712C52.0797 119.926 54.4083 118.988 56.666 117.935C57.015 117.772 57.1677 117.355 57.0041 117.008C56.8405 116.66 56.4206 116.509 56.0716 116.671C53.863 117.707 51.5889 118.619 49.3039 119.389C49.2548 119.405 44.0578 121.119 39.466 121.808C38.0481 122.02 36.5866 122.139 35.1306 122.166C34.4816 122.177 34.1271 122.166 32.622 122.112L30.7897 122.047C30.2825 122.031 29.8244 122.009 29.399 121.987C28.0739 121.927 27.1141 121.884 26.0289 121.993C24.551 122.139 23.0622 122.508 21.6007 123.088C21.2408 123.229 21.0663 123.636 21.2081 123.994C21.3171 124.265 21.5789 124.434 21.8625 124.434V124.439Z" fill="#408F95"/>
<path d="M0.703537 121.7C0.807152 121.7 0.905304 121.678 1.00347 121.635C1.44519 121.423 1.90873 121.233 2.37227 121.071C3.91013 120.523 5.26802 120.338 7.10035 120.203C10.8305 119.926 14.7515 119.98 16.2239 120.1C16.4475 120.116 16.9874 120.165 17.7072 120.138C18.3289 120.116 18.956 120.046 19.5723 119.932C19.6213 119.921 19.6704 119.91 19.7141 119.888C20.0794 119.736 20.4339 119.563 20.7775 119.378C21.5955 118.934 22.1626 118.483 22.408 118.288L22.4789 118.234C25.0529 116.27 27.736 114.393 30.4572 112.663C32.9603 111.068 34.9399 109.81 37.6775 108.503C40.5678 107.125 43.6217 106.018 46.7574 105.21C47.1337 105.112 47.3573 104.733 47.2591 104.358C47.161 103.984 46.7792 103.762 46.403 103.859C43.1745 104.689 40.0334 105.828 37.0667 107.244C34.2528 108.589 32.2405 109.864 29.6992 111.486C26.9453 113.238 24.224 115.137 21.6227 117.127L21.5355 117.192C21.3173 117.361 20.8156 117.762 20.1012 118.152C19.8231 118.304 19.5341 118.445 19.2396 118.57C18.7215 118.662 18.1871 118.722 17.6581 118.738C17.0201 118.76 16.5402 118.722 16.3602 118.706C14.5279 118.554 10.4433 118.554 6.99674 118.809C5.04443 118.955 3.58838 119.151 1.89783 119.753C1.38521 119.932 0.883499 120.143 0.398148 120.371C0.0491295 120.539 -0.0981369 120.951 0.065464 121.304C0.18544 121.554 0.436314 121.7 0.698078 121.7H0.703537Z" fill="#408F95"/>
<path d="M8.77439 137.55C8.94889 137.55 9.12884 137.484 9.26517 137.349L15.3293 131.469C16.4146 130.308 17.4398 129.12 18.4105 127.911C19.1413 126.999 19.8502 126.061 20.5319 125.112C20.7555 124.797 20.6791 124.363 20.3683 124.141C20.052 123.918 19.6157 123.994 19.3921 124.303C18.7268 125.231 18.0342 126.153 17.3198 127.043C16.371 128.225 15.3675 129.386 14.3314 130.498L8.29448 136.356C8.01636 136.627 8.0109 137.067 8.28357 137.343C8.4199 137.484 8.60531 137.555 8.78527 137.555L8.77439 137.55Z" fill="#408F95"/>
<path d="M8.77438 137.55C9.06341 137.55 9.33061 137.371 9.43422 137.089C10.1759 135.033 10.5631 132.918 10.5849 130.813C10.6067 129.045 10.6176 127.651 9.82143 126.126C8.91616 124.401 7.52008 123.55 5.75318 122.476L5.60051 122.384C4.1499 121.499 2.56296 120.81 0.888766 120.333C0.517936 120.225 0.12531 120.442 0.0216951 120.811C-0.0873728 121.179 0.130733 121.57 0.501563 121.673C2.05578 122.112 3.52274 122.752 4.86428 123.571L5.01699 123.664C6.66391 124.667 7.85276 125.389 8.57261 126.772C9.21066 127.987 9.19429 129.104 9.17793 130.797C9.15612 132.744 8.79618 134.702 8.10905 136.617C7.97817 136.98 8.16906 137.382 8.53443 137.512C8.61078 137.539 8.69258 137.555 8.76893 137.555L8.77438 137.55Z" fill="#408F95"/>
<path d="M48.9877 116.172C49.4567 116.172 49.9638 116.118 50.4983 115.988C52.4069 115.511 53.574 114.312 54.103 113.634C54.3429 113.33 54.2884 112.891 53.983 112.652C53.6776 112.413 53.2359 112.468 52.9959 112.771C52.576 113.303 51.6544 114.252 50.1547 114.626C48.655 115.001 47.4771 114.572 46.7027 114.29C46.5882 114.247 46.4955 114.214 46.4191 114.176C46.7409 113.965 47.3353 113.688 48.1915 113.352C49.6148 112.788 51.1581 112.402 52.7778 112.213C53.165 112.169 53.4376 111.822 53.394 111.437C53.3504 111.052 53.0014 110.775 52.6142 110.824C50.8745 111.03 49.2058 111.442 47.6679 112.055C46.0156 112.712 44.6631 113.341 44.794 114.388C44.8704 115.028 45.5575 115.359 46.2228 115.597C46.8172 115.814 47.7825 116.167 48.9931 116.167L48.9877 116.172Z" fill="#408F95"/>
<path d="M57.3206 115.191C57.6206 115.191 57.8987 115.001 57.9914 114.702C58.1059 114.334 57.9041 113.943 57.5333 113.829C56.1918 113.412 55.0029 112.728 53.9995 111.806C53.4705 111.318 52.9961 110.764 52.5925 110.157C52.3799 109.837 51.9436 109.745 51.6218 109.956C51.3001 110.168 51.2074 110.602 51.4201 110.922C51.8836 111.621 52.4289 112.262 53.0397 112.826C54.1958 113.889 55.5646 114.675 57.1079 115.158C57.1788 115.18 57.2497 115.191 57.3206 115.191Z" fill="#408F95"/>
<path d="M58.8529 107.732C59.022 107.732 59.1856 107.7 59.3437 107.64C60.0418 107.369 60.3908 106.582 60.1181 105.888C59.8455 105.194 59.0547 104.846 58.3567 105.118C57.6587 105.389 57.3096 106.175 57.5823 106.87C57.7132 107.206 57.9695 107.472 58.3022 107.618C58.4767 107.694 58.6621 107.732 58.8475 107.732H58.8529ZM58.8966 106.365C58.9075 106.387 58.8966 106.414 58.8693 106.42C58.8529 106.425 58.8202 106.414 58.8148 106.392L58.8966 106.36V106.365ZM58.8966 106.365L58.8148 106.398C58.8148 106.398 58.8148 106.349 58.842 106.344C58.8639 106.338 58.8911 106.349 58.8966 106.371V106.365Z" fill="#408F95"/>
<path d="M43.4799 125.443C43.9325 125.443 44.347 125.367 44.5488 125.323C45.2468 125.172 45.9394 124.971 46.6047 124.721C47.5263 124.385 48.4152 123.951 49.255 123.447C52.3089 121.608 53.8959 120.235 56.5299 117.968C56.8243 117.713 56.8571 117.274 56.6008 116.981C56.3444 116.688 55.9027 116.655 55.6082 116.91C52.9415 119.205 51.4746 120.474 48.5243 122.253C47.7608 122.714 46.9482 123.105 46.1139 123.414C45.5086 123.636 44.876 123.821 44.2434 123.962C43.8507 124.049 43.4635 124.06 43.229 124.032C43.3926 123.702 43.878 123.04 44.9741 121.998C45.2522 121.733 45.2632 121.288 44.9959 121.011C44.7287 120.734 44.2815 120.724 44.0034 120.989C41.533 123.338 41.5603 124.239 41.9148 124.808C42.2311 125.313 42.88 125.448 43.469 125.448L43.4799 125.443Z" fill="#408F95"/>
<path d="M27.3106 128.643C27.3106 128.643 27.3324 128.643 27.3433 128.643C29.3229 128.545 31.2479 128.111 33.0639 127.346C35.3052 126.403 37.3557 124.938 38.9972 123.115C39.2535 122.828 39.2317 122.389 38.9426 122.128C38.6536 121.868 38.2119 121.895 37.9501 122.182C36.445 123.853 34.5636 125.193 32.5131 126.061C31.057 126.674 29.5246 127.059 27.9432 127.2C27.9213 126.663 27.9541 125.909 28.2376 125.296C28.3412 125.074 28.494 124.743 28.8157 124.423C28.9139 124.33 28.9902 124.271 29.1647 124.135L29.3119 124.021C29.7264 123.701 30.0591 123.43 30.2772 123.251C30.5771 123.007 30.6208 122.568 30.3754 122.269C30.13 121.971 29.6882 121.927 29.3883 122.172C29.1756 122.345 28.8484 122.611 28.4449 122.92L28.3031 123.034C28.0631 123.218 27.965 123.3 27.8341 123.425C27.3215 123.924 27.0761 124.461 26.9561 124.716C26.3617 126.012 26.5416 127.596 26.6125 128.052C26.6671 128.393 26.9615 128.643 27.3051 128.643H27.3106Z" fill="#408F95"/>
<path d="M23.624 116.352C23.6731 116.352 23.7222 116.352 23.7713 116.335C24.3711 116.211 25.0092 116.037 25.7072 115.815C26.078 115.695 26.2798 115.305 26.1598 114.936C26.0399 114.567 25.6472 114.366 25.2764 114.486C24.622 114.692 24.033 114.854 23.4768 114.968C23.095 115.05 22.8551 115.419 22.9369 115.798C23.0078 116.129 23.2968 116.352 23.624 116.352Z" fill="#408F95"/>
<path d="M21.6608 116.677C22.3043 116.677 23.0296 116.563 23.8258 116.324C24.1966 116.216 24.4093 115.825 24.2948 115.456C24.1857 115.087 23.7931 114.876 23.4222 114.99C21.688 115.505 20.6355 115.272 20.3901 114.838C20.1611 114.437 20.4828 113.498 21.7153 112.397C22.0043 112.137 22.0261 111.697 21.7698 111.41C21.5081 111.122 21.0664 111.101 20.7773 111.356C19.1304 112.831 18.5251 114.388 19.1686 115.521C19.5994 116.281 20.4829 116.677 21.6608 116.677Z" fill="#408F95"/>
<path d="M22.9806 111.469C23.106 111.469 23.2314 111.437 23.3459 111.366C24.7147 110.536 26.1326 109.761 27.5669 109.061C32.6767 106.571 38.2064 104.911 44.0143 104.136C44.396 104.087 44.6687 103.734 44.6141 103.349C44.5596 102.969 44.2106 102.698 43.8234 102.753C37.8683 103.55 32.1913 105.253 26.9452 107.808C25.4727 108.524 24.0112 109.321 22.6097 110.178C22.2771 110.379 22.1734 110.808 22.3752 111.139C22.5061 111.355 22.7406 111.475 22.9751 111.475L22.9806 111.469Z" fill="#408F95"/>
<path d="M53.0177 104.581C53.3394 104.581 53.6285 104.364 53.6994 104.038C53.7866 103.664 53.5467 103.29 53.1704 103.203C52.0361 102.948 50.869 102.758 49.7129 102.65C48.6059 102.547 47.4825 102.509 46.3646 102.547C46.1028 102.552 45.8846 102.563 45.7265 102.574C45.3393 102.595 45.0448 102.921 45.0612 103.306C45.0775 103.691 45.4157 103.984 45.7974 103.968C45.9446 103.962 46.1519 103.952 46.4027 103.941C47.4607 103.908 48.5295 103.941 49.5766 104.044C50.6782 104.147 51.7798 104.32 52.8541 104.564C52.9086 104.575 52.9577 104.581 53.0122 104.581H53.0177Z" fill="#408F95"/>
<path d="M41.8874 105.085C42.0401 105.085 42.1874 104.993 42.2473 104.841C42.3237 104.64 42.2255 104.418 42.0238 104.342C41.9256 104.304 41.7838 104.255 41.6148 104.201C40.9712 103.995 40.295 103.876 39.6079 103.848C39.0789 103.827 38.539 103.854 38.0101 103.941C37.7974 103.973 37.6556 104.174 37.6883 104.38C37.721 104.592 37.9228 104.727 38.13 104.7C38.6045 104.624 39.0898 104.597 39.5643 104.619C40.1805 104.646 40.7913 104.754 41.3694 104.939C41.5221 104.988 41.6475 105.036 41.7347 105.069C41.7784 105.085 41.8274 105.096 41.8711 105.096L41.8874 105.085Z" fill="#408F95"/>
<path d="M38.419 106.246C38.599 106.246 38.7572 106.121 38.7953 105.942C38.839 105.736 38.7081 105.53 38.5008 105.487C38.4081 105.465 38.2664 105.438 38.0973 105.405C37.4647 105.286 36.8048 105.204 36.1341 105.161C35.616 105.129 35.0979 105.118 34.5908 105.134C34.3781 105.139 34.209 105.318 34.2145 105.53C34.2199 105.741 34.4108 105.893 34.6126 105.904C35.0979 105.888 35.5887 105.899 36.085 105.926C36.7176 105.964 37.3502 106.045 37.9501 106.159C38.1082 106.192 38.2445 106.219 38.3318 106.235C38.3591 106.241 38.3863 106.246 38.4136 106.246H38.419Z" fill="#408F95"/>
<path d="M34.0945 107.852C34.2636 107.852 34.4163 107.743 34.4654 107.575C34.5253 107.369 34.4054 107.157 34.2036 107.098C34.1054 107.071 33.9691 107.033 33.7946 106.989C33.1565 106.832 32.4912 106.734 31.815 106.702C31.2915 106.675 30.7625 106.68 30.2499 106.729C30.0372 106.745 29.879 106.935 29.9009 107.147C29.9227 107.358 30.1135 107.515 30.3208 107.494C30.8007 107.45 31.2915 107.445 31.7768 107.472C32.404 107.505 33.0257 107.597 33.6146 107.743C33.7728 107.781 33.9037 107.819 33.9909 107.841C34.0291 107.852 34.0618 107.857 34.1 107.857L34.0945 107.852Z" fill="#408F95"/>
<path d="M30.9316 124.868C30.9916 124.868 31.057 124.852 31.117 124.819L33.8819 123.338C34.0673 123.235 34.1382 123.002 34.04 122.817C33.9364 122.633 33.7019 122.563 33.5165 122.66L30.7516 124.141C30.5662 124.244 30.4953 124.477 30.5935 124.662C30.6644 124.792 30.7953 124.862 30.9316 124.862V124.868Z" fill="#408F95"/>
<path d="M11.8665 131.231C12.041 131.231 12.2155 131.155 12.33 131.003C13.0008 130.124 13.5298 129.153 13.8897 128.122C14.3751 126.75 14.8277 125.448 14.2333 124.19C13.6225 122.904 12.2919 122.432 10.8795 121.939C9.72333 121.532 8.50723 121.326 7.26931 121.32C6.94756 121.32 6.69125 121.575 6.69125 121.895C6.69125 122.215 6.94756 122.47 7.26931 122.476C8.37635 122.476 9.46156 122.666 10.4922 123.029C11.7738 123.479 12.7827 123.832 13.1862 124.683C13.5789 125.519 13.2353 126.501 12.7991 127.748C12.4773 128.665 12.0083 129.527 11.4084 130.314C11.2121 130.569 11.2666 130.927 11.5175 131.122C11.6211 131.203 11.7465 131.241 11.8665 131.241V131.231Z" fill="#408F95"/>
<path d="M141.635 61.5171C141.881 61.5171 142.126 61.3977 142.274 61.1808C142.699 60.5678 142.928 59.9223 142.961 59.2606C143.13 55.9626 138.434 53.6301 135.01 51.9269C131.427 50.1477 127.544 48.8459 123.476 48.0593C123.056 47.978 122.652 48.2492 122.57 48.6669C122.489 49.0845 122.761 49.4859 123.181 49.5673C127.113 50.3267 130.865 51.5851 134.317 53.2992C137.016 54.6445 141.532 56.8901 141.417 59.1846C141.401 59.5535 141.259 59.9332 140.997 60.3129C140.757 60.6654 140.845 61.1428 141.199 61.3815C141.33 61.4737 141.483 61.5171 141.635 61.5171Z" fill="#408F95"/>
<path d="M128.373 70.3319C128.449 70.3319 128.525 70.3211 128.596 70.2994C130.412 69.7515 132.206 69.1115 133.93 68.4063C134.682 68.0971 135.713 67.674 137.038 67.0068C138.249 66.3993 139.432 65.7213 140.567 64.9944C140.61 64.9673 140.648 64.9347 140.687 64.9022C140.741 64.8479 140.834 64.7666 140.943 64.6689C142.181 63.5732 143.364 62.4124 143.081 61.3438C143.004 61.0509 142.742 60.5302 141.87 60.3458C141.455 60.259 141.041 60.5193 140.954 60.937C140.866 61.3384 141.117 61.7344 141.51 61.8375C141.363 62.1087 140.943 62.6023 139.918 63.519C139.819 63.6058 139.738 63.6817 139.672 63.736C138.603 64.4194 137.485 65.0541 136.346 65.629C135.075 66.2691 134.077 66.6814 133.346 66.9797C131.672 67.6686 129.922 68.287 128.155 68.824C127.746 68.9487 127.517 69.3772 127.642 69.7841C127.746 70.115 128.051 70.3319 128.384 70.3319H128.373Z" fill="#408F95"/>
<path d="M119.849 70.8849C122.445 70.8849 125.057 70.7764 127.647 70.5594C128.073 70.5215 128.389 70.1526 128.351 69.7295C128.318 69.3064 127.942 68.9918 127.517 69.0298C124.108 69.3173 120.667 69.4095 117.28 69.3118C117.21 69.3118 109.531 69.0352 103.151 67.7062C101.177 67.294 99.1916 66.7407 97.2611 66.0627C96.3995 65.7589 95.9359 65.5691 93.9836 64.7663L91.6168 63.7953C90.957 63.5241 90.368 63.2746 89.8227 63.0467C88.1158 62.3253 86.8833 61.81 85.4163 61.4249C83.4204 60.9041 81.3099 60.6709 79.1286 60.7197C78.7032 60.7306 78.3651 61.0831 78.376 61.5062C78.3869 61.9293 78.7577 62.2548 79.1667 62.2548C81.2008 62.206 83.1695 62.4284 85.0237 62.9111C86.3816 63.2637 87.5704 63.7682 89.2173 64.4571C89.7627 64.6903 90.3571 64.9398 91.0224 65.211L93.3892 66.182C95.3197 66.9794 95.8378 67.1909 96.743 67.5055C98.739 68.2053 100.789 68.7802 102.834 69.2033C109.351 70.5594 117.155 70.8361 117.237 70.8415C118.104 70.8686 118.976 70.8795 119.854 70.8795L119.849 70.8849Z" fill="#408F95"/>
<path d="M78.1798 55.1869C78.1798 55.1869 78.2017 55.1869 78.2126 55.1869C78.7579 55.1652 79.3032 55.1164 79.8377 55.035C81.1138 54.8506 82.0736 54.5414 82.4826 54.4058L82.6025 54.3679C86.9489 53.0335 91.3934 51.8781 95.8216 50.9234C99.8953 50.0447 103.118 49.3558 107.361 48.9652C111.838 48.5584 116.408 48.5855 120.934 49.052C121.36 49.1008 121.742 48.7917 121.785 48.3686C121.829 47.9455 121.523 47.5658 121.098 47.5224C116.474 47.045 111.805 47.0179 107.225 47.4302C102.889 47.8261 99.628 48.5259 95.4998 49.4154C91.028 50.3756 86.5344 51.5472 82.1499 52.8924L82.0081 52.9358C81.6373 53.0552 80.7647 53.3372 79.6195 53.5054C79.1614 53.5705 78.6979 53.6193 78.2344 53.6356C77.4873 53.5054 76.7456 53.321 76.0257 53.0823C75.1641 52.7948 74.5479 52.5073 74.3134 52.3988C71.9957 51.3194 66.6459 49.3341 62.0105 47.9997C59.3984 47.2457 57.4024 46.8064 54.9157 46.7738C54.1631 46.763 53.4051 46.7901 52.6634 46.8552C52.238 46.8931 51.9218 47.2674 51.9599 47.6905C51.9981 48.1136 52.3689 48.4282 52.7997 48.3903C53.4923 48.3306 54.1958 48.3089 54.8993 48.3143C57.2061 48.3469 59.0984 48.7645 61.5852 49.4805C66.6296 50.9343 71.7612 52.9087 73.6426 53.782C73.9207 53.9122 74.597 54.2268 75.5458 54.5414C76.3693 54.8126 77.2146 55.0242 78.0653 55.1706C78.1089 55.1761 78.1526 55.1815 78.1962 55.1815L78.1798 55.1869Z" fill="#408F95"/>
<path d="M55.5481 73.1145C55.6517 73.1145 55.7608 73.0928 55.8589 73.0494L66.7003 68.276C68.6744 67.2887 70.6049 66.2256 72.47 65.1136C73.8715 64.2728 75.2676 63.3832 76.6146 62.472C76.969 62.2333 77.0563 61.7559 76.8163 61.4034C76.5764 61.0508 76.0965 60.9586 75.742 61.2027C74.4168 62.0977 73.048 62.971 71.6683 63.7955C69.836 64.8912 67.9437 65.9327 66.035 66.8873L55.2318 71.6445C54.8391 71.8181 54.6646 72.2683 54.8391 72.6588C54.9646 72.9463 55.2482 73.1145 55.5481 73.1145Z" fill="#408F95"/>
<path d="M55.5483 73.1145C55.7664 73.1145 55.9845 73.0223 56.1372 72.8433C58.1059 70.5217 59.6383 67.9614 60.6908 65.233C61.5743 62.9493 62.2669 61.1485 61.9778 58.8106C61.6452 56.1635 60.2436 54.3898 58.4713 52.1441L58.3186 51.9488C56.8571 50.0991 55.1338 48.4393 53.1815 47.0127C52.8379 46.7632 52.3526 46.8337 52.1017 47.1754C51.8509 47.5172 51.9218 47.9999 52.2653 48.2494C54.1031 49.5947 55.7282 51.1569 57.1025 52.8981L57.2552 53.0934C58.9457 55.2305 60.1673 56.7765 60.4454 59.0004C60.6908 60.9532 60.1182 62.434 59.2511 64.6797C58.2586 67.2508 56.8135 69.6646 54.9539 71.8506C54.6812 72.1761 54.7193 72.6589 55.0466 72.9355C55.1938 73.0548 55.3683 73.1145 55.5428 73.1145H55.5483Z" fill="#408F95"/>
<path d="M121.523 65.0645C123.727 65.0645 125.428 64.2401 126.306 63.703C126.671 63.4806 126.78 63.0087 126.557 62.6453C126.333 62.2819 125.859 62.168 125.493 62.3958C124.659 62.9057 122.93 63.7247 120.722 63.4806C118.508 63.2366 117.144 62.0757 116.239 61.3109C115.95 61.0668 115.775 60.8878 115.672 60.7685C116.037 60.6275 116.888 60.4864 118.78 60.4376C120.945 60.3888 123.181 60.6329 125.417 61.1753C125.832 61.2784 126.251 61.0234 126.35 60.6112C126.453 60.1989 126.197 59.7813 125.782 59.6836C123.416 59.1086 121.043 58.8483 118.742 58.9025C116.43 58.9568 114.33 59.1141 114.019 60.4105C113.872 61.0289 114.221 61.631 115.23 62.488C116.212 63.3233 117.859 64.7174 120.547 65.0157C120.88 65.0537 121.207 65.07 121.518 65.07L121.523 65.0645Z" fill="#408F95"/>
<path d="M130.222 67.3377C130.451 67.3377 130.68 67.2346 130.832 67.0393C131.094 66.703 131.034 66.2203 130.696 65.9599C129.115 64.7394 127.871 63.2477 126.993 61.5228C126.53 60.6115 126.175 59.6351 125.941 58.6316C125.842 58.2194 125.428 57.959 125.014 58.0567C124.599 58.1543 124.337 58.5665 124.436 58.9788C124.697 60.1071 125.095 61.1973 125.613 62.2171C126.59 64.1482 127.98 65.8134 129.747 67.1749C129.889 67.2834 130.052 67.3377 130.222 67.3377Z" fill="#408F95"/>
<path d="M136.209 58.3495C136.209 58.3495 136.226 58.3495 136.237 58.3495C137.169 58.3386 137.922 57.5684 137.905 56.6408C137.894 55.7187 137.136 54.981 136.209 54.981C136.204 54.981 136.193 54.981 136.187 54.981C135.255 54.9918 134.502 55.7621 134.519 56.6896C134.53 57.6118 135.288 58.3495 136.215 58.3495H136.209ZM136.209 56.516C136.291 56.516 136.356 56.5811 136.356 56.6625C136.356 56.7113 136.335 56.7493 136.313 56.7656C136.291 56.7873 136.258 56.809 136.209 56.809C136.133 56.809 136.062 56.7439 136.057 56.6625C136.057 56.5811 136.122 56.516 136.204 56.5106L136.209 56.516Z" fill="#408F95"/>
<path d="M111.167 74.5791C112.52 74.5791 113.878 74.4489 115.208 74.1994C120.1 73.2664 122.848 72.2466 127.407 70.5488C127.806 70.4024 128.007 69.9576 127.86 69.5616C127.707 69.1656 127.266 68.9649 126.868 69.1114C122.232 70.8363 119.68 71.7856 114.919 72.6914C113.687 72.9247 112.422 73.044 111.173 73.044H111.151C110.235 73.044 109.308 72.9789 108.397 72.8488C107.628 72.7403 106.968 72.4745 106.734 72.2955C106.957 72.0026 107.846 71.2703 110.267 70.2342C110.66 70.0661 110.84 69.6159 110.671 69.2253C110.502 68.8348 110.049 68.6558 109.657 68.8239C105.376 70.6519 105.005 71.7964 105.163 72.5884C105.43 73.9228 107.726 74.3133 108.179 74.3784C109.16 74.514 110.158 74.5845 111.145 74.59H111.173L111.167 74.5791Z" fill="#408F95"/>
<path d="M91.0279 71.4709C91.3769 71.4709 91.7259 71.4655 92.0749 71.4492C95.4506 71.2973 98.8317 70.3806 101.847 68.8021C102.224 68.6069 102.371 68.1404 102.169 67.7661C101.973 67.3918 101.504 67.2454 101.128 67.4461C98.3081 68.9215 95.1506 69.7731 92.004 69.9195C89.6972 70.0226 87.4014 69.7568 85.1709 69.133C85.3945 68.3899 85.8362 67.2508 86.6052 66.4805C86.8451 66.2419 87.2378 65.8459 87.8594 65.5747C88.023 65.5042 88.1485 65.4608 88.4866 65.3577L88.7265 65.2818C89.4246 65.0594 89.9917 64.8695 90.368 64.7393C90.7716 64.6037 90.9842 64.1644 90.8479 63.763C90.7061 63.3616 90.2698 63.15 89.8663 63.2856C89.4955 63.4104 88.9447 63.6002 88.2575 63.8172L88.0176 63.8931C87.6522 64.0071 87.4722 64.0667 87.2268 64.1698C86.3434 64.5603 85.7981 65.1028 85.509 65.3903C84.1293 66.768 83.6058 68.8835 83.4804 69.4965C83.3986 69.8816 83.6276 70.2667 84.0039 70.386C86.2889 71.1075 88.6502 71.4763 91.0224 71.4763L91.0279 71.4709Z" fill="#408F95"/>
<path d="M88.1267 52.7516C88.5357 52.7516 88.8793 52.4315 88.9011 52.0193C88.9229 51.5962 88.5902 51.2382 88.1649 51.2165C87.1996 51.1731 86.3434 51.0917 85.5473 50.9778C85.1273 50.9127 84.7292 51.2056 84.6692 51.6233C84.6038 52.041 84.8983 52.4369 85.3182 52.4966C86.1635 52.6214 87.0742 52.7082 88.094 52.7516C88.1049 52.7516 88.1158 52.7516 88.1322 52.7516H88.1267Z" fill="#408F95"/>
<path d="M85.4328 52.5021C85.8364 52.5021 86.1745 52.1875 86.2018 51.7807C86.229 51.3576 85.9073 50.9887 85.4819 50.9616C82.8261 50.7935 81.5118 49.9147 81.3864 49.1174C81.2774 48.4285 82.0136 47.2894 84.4567 46.3293C84.8548 46.1719 85.0456 45.7272 84.8929 45.3312C84.7348 44.9352 84.2876 44.7399 83.8895 44.8972C81.1028 45.9929 79.5977 47.6636 79.8649 49.356C80.143 51.1189 82.2099 52.2906 85.3892 52.4967C85.4056 52.4967 85.4219 52.4967 85.4383 52.4967L85.4328 52.5021Z" fill="#408F95"/>
<path d="M118.055 46.3346C118.409 46.3346 118.726 46.0905 118.808 45.7379C118.9 45.3256 118.638 44.9134 118.224 44.8212C110.038 42.9823 101.777 42.4616 93.6619 43.2698C91.3824 43.4977 89.0865 43.834 86.8288 44.2679C86.4089 44.3493 86.1362 44.7507 86.218 45.1683C86.2998 45.586 86.7034 45.8572 87.1233 45.7759C89.3319 45.3473 91.5787 45.0165 93.8146 44.7941C101.76 44.0021 109.858 44.512 117.88 46.3183C117.94 46.3291 117.995 46.34 118.049 46.34L118.055 46.3346Z" fill="#408F95"/>
<path d="M129.774 51.3247C130.025 51.3247 130.276 51.2 130.423 50.9776C130.658 50.625 130.56 50.1476 130.2 49.9144C128.842 49.0302 127.413 48.2274 125.957 47.5277C124.561 46.8551 123.11 46.2693 121.638 45.7757C121.294 45.6617 121 45.5695 120.793 45.5044C120.389 45.3743 119.953 45.6021 119.827 46.0089C119.702 46.4157 119.925 46.8442 120.334 46.969C120.531 47.0287 120.809 47.1209 121.142 47.2294C122.554 47.7013 123.945 48.2708 125.281 48.9109C126.682 49.5835 128.051 50.3538 129.349 51.2C129.48 51.2868 129.627 51.3247 129.769 51.3247H129.774Z" fill="#408F95"/>
<path d="M114.958 47.3759C115.116 47.3759 115.279 47.3108 115.394 47.1807C115.606 46.942 115.585 46.5786 115.345 46.367C115.236 46.2694 115.078 46.1338 114.876 45.9765C114.129 45.3906 113.3 44.9079 112.411 44.5336C111.724 44.2461 111.004 44.0237 110.262 43.8772C109.951 43.8122 109.646 44.0183 109.58 44.3329C109.52 44.6475 109.722 44.9458 110.039 45.0109C110.698 45.1411 111.342 45.3364 111.958 45.5968C112.754 45.9331 113.496 46.367 114.161 46.8877C114.341 47.0288 114.483 47.1481 114.581 47.2349C114.69 47.3325 114.827 47.3814 114.963 47.3814L114.958 47.3759Z" fill="#408F95"/>
<path d="M109.646 46.6436C109.837 46.6436 110.022 46.5514 110.137 46.3778C110.311 46.1121 110.229 45.754 109.962 45.5805C109.848 45.5045 109.679 45.4015 109.471 45.2767C108.697 44.8102 107.873 44.3817 107.012 44.002C106.352 43.7091 105.67 43.4433 104.994 43.2209C104.689 43.1178 104.361 43.2806 104.258 43.5843C104.154 43.8881 104.318 44.2135 104.623 44.3166C105.267 44.5281 105.91 44.7831 106.537 45.0597C107.35 45.4232 108.135 45.8246 108.866 46.2694C109.062 46.3887 109.22 46.4863 109.33 46.5568C109.428 46.6165 109.537 46.6491 109.64 46.6491L109.646 46.6436Z" fill="#408F95"/>
<path d="M103.184 46.6546C103.364 46.6546 103.538 46.5732 103.653 46.4214C103.843 46.1664 103.789 45.803 103.533 45.6131C103.418 45.5318 103.254 45.4124 103.053 45.2714C102.289 44.7561 101.46 44.3059 100.588 43.9262C99.9115 43.6333 99.2135 43.3892 98.5155 43.1993C98.2046 43.1179 97.8883 43.2969 97.8011 43.6007C97.7138 43.9099 97.8992 44.2245 98.2046 44.3113C98.8536 44.4903 99.4971 44.7181 100.119 44.9839C100.926 45.3311 101.689 45.7542 102.393 46.2261C102.584 46.3508 102.731 46.4647 102.835 46.5407C102.938 46.6166 103.058 46.6546 103.178 46.6546H103.184Z" fill="#408F95"/>
<path d="M90.6899 67.4459C90.6899 67.4459 90.7444 67.4459 90.7717 67.4405L95.1289 66.8384C95.4452 66.795 95.6688 66.5021 95.6252 66.1875C95.5815 65.8729 95.2871 65.6505 94.9708 65.6939L90.6135 66.296C90.2972 66.3394 90.0736 66.6323 90.1172 66.9469C90.1554 67.2344 90.4063 67.4459 90.6899 67.4459Z" fill="#408F95"/>
<path d="M62.6485 66.2851C62.7522 66.2851 62.8612 66.258 62.9594 66.1929C64.2518 65.3738 65.4025 64.3758 66.3678 63.2149C67.6439 61.6799 68.8491 60.2316 68.6964 58.3873C68.5382 56.4996 67.0494 55.2683 65.4789 53.9611C64.181 52.8816 62.714 52.0354 61.1161 51.4388C60.8162 51.3249 60.4836 51.4767 60.369 51.7751C60.2545 52.0734 60.4072 52.4043 60.7071 52.5182C62.185 53.0715 63.5375 53.8526 64.7372 54.8452C66.2369 56.0928 67.4203 57.0746 67.5402 58.4795C67.6548 59.8573 66.695 61.0127 65.4789 62.4772C64.59 63.5458 63.5374 64.4625 62.3432 65.2165C62.0705 65.3847 61.9941 65.7427 62.1632 66.0139C62.2723 66.1875 62.4631 66.2797 62.654 66.2797L62.6485 66.2851Z" fill="#408F95"/>
<path d="M234.594 78.1533C234.878 78.1533 235.145 77.9798 235.248 77.7031C235.45 77.1824 235.499 76.6671 235.407 76.1735C234.943 73.7596 231.235 72.9189 228.53 72.3005C225.727 71.6604 222.798 71.4109 219.826 71.5465C219.439 71.5628 219.139 71.8937 219.155 72.2788C219.172 72.6639 219.499 72.9514 219.892 72.946C222.738 72.8104 225.536 73.0545 228.214 73.662C230.28 74.1339 233.738 74.9205 234.027 76.4338C234.07 76.6671 234.038 76.9274 233.934 77.2041C233.798 77.5621 233.978 77.9689 234.343 78.1045C234.425 78.1371 234.507 78.1479 234.594 78.1479V78.1533Z" fill="#408F95"/>
<path d="M226.883 86.496C227.003 86.496 227.128 86.4635 227.237 86.3984C228.41 85.7095 229.55 84.9609 230.629 84.1798C231.098 83.8381 231.747 83.3716 232.56 82.6773C233.302 82.0481 234.01 81.3755 234.676 80.6812C234.708 80.6486 234.736 80.6106 234.763 80.5727C234.79 80.5293 234.839 80.4588 234.899 80.3774C235.597 79.3685 236.246 78.3216 235.826 77.5568C235.706 77.3344 235.401 76.9655 234.681 76.9926C234.294 77.0035 233.989 77.3235 234 77.7086C234.01 78.0124 234.212 78.2673 234.49 78.3541C234.398 78.5819 234.185 78.9562 233.749 79.5854C233.7 79.656 233.656 79.7211 233.623 79.7699C233.007 80.4154 232.342 81.0392 231.655 81.6196C230.88 82.2759 230.264 82.7261 229.811 83.0516C228.77 83.8056 227.668 84.527 226.534 85.1942C226.201 85.3895 226.092 85.818 226.288 86.1489C226.419 86.3713 226.654 86.4906 226.894 86.4906L226.883 86.496Z" fill="#408F95"/>
<path d="M208.03 90.0112C208.39 90.0112 208.745 90.0058 209.099 89.995C213.866 89.8431 219.172 88.7582 219.395 88.7094C221.811 88.1995 224.227 87.5432 226.594 86.7566C226.959 86.6319 227.161 86.2413 227.035 85.8725C226.91 85.509 226.517 85.3083 226.147 85.4331C223.834 86.2034 221.462 86.8434 219.106 87.3425C219.057 87.3533 213.691 88.449 209.05 88.6009C207.616 88.6497 206.149 88.6009 204.704 88.449C204.055 88.3839 203.7 88.3297 202.206 88.0964L200.407 87.8198C199.905 87.7439 199.452 87.6679 199.038 87.6028C197.729 87.3913 196.78 87.234 195.689 87.2177C194.206 87.1906 192.679 87.3859 191.163 87.7873C190.787 87.8849 190.569 88.27 190.667 88.6443C190.765 89.0186 191.152 89.2355 191.528 89.1379C192.919 88.7691 194.31 88.5901 195.668 88.6118C196.66 88.628 197.565 88.7745 198.814 88.9806C199.234 89.0511 199.692 89.1216 200.199 89.203L201.993 89.4796C203.477 89.7075 203.88 89.7726 204.562 89.8376C205.713 89.9516 206.874 90.0112 208.025 90.0112H208.03Z" fill="#408F95"/>
<path d="M188.671 84.4404C188.954 84.4404 189.243 84.4296 189.527 84.4133C189.576 84.4133 189.625 84.4025 189.669 84.3862C190.045 84.2777 190.421 84.1475 190.787 84.0011C191.654 83.6539 192.27 83.2742 192.537 83.1115L192.608 83.0681C195.395 81.4137 198.28 79.8677 201.186 78.4628C203.864 77.1719 205.974 76.1521 208.848 75.1757C211.88 74.1451 215.043 73.402 218.255 72.9626C218.637 72.9084 218.91 72.5612 218.855 72.1761C218.801 71.7964 218.452 71.5197 218.065 71.5794C214.76 72.0242 211.51 72.789 208.39 73.8522C205.44 74.8557 203.291 75.8917 200.576 77.2044C197.631 78.6256 194.708 80.1932 191.888 81.8639L191.796 81.9181C191.561 82.0646 191.01 82.4009 190.258 82.7047C189.963 82.824 189.658 82.9271 189.353 83.0193C188.824 83.0518 188.289 83.0464 187.766 83.003C187.122 82.9488 186.653 82.8565 186.479 82.8186C184.679 82.4551 180.622 81.9778 177.17 81.8259C175.217 81.7446 173.745 81.7717 172 82.1677C171.471 82.287 170.947 82.4389 170.435 82.607C170.069 82.7318 169.873 83.1278 169.993 83.4912C170.118 83.8546 170.516 84.0499 170.882 83.9306C171.345 83.7733 171.825 83.6377 172.311 83.5292C173.903 83.1657 175.272 83.1386 177.11 83.22C180.845 83.3827 184.733 83.8872 186.184 84.1801C186.397 84.2235 186.926 84.332 187.651 84.3916C187.989 84.4187 188.333 84.435 188.671 84.435V84.4404Z" fill="#408F95"/>
<path d="M176.815 100.653C176.962 100.653 177.115 100.605 177.241 100.507L183.954 95.3702C185.164 94.345 186.326 93.2818 187.433 92.1915C188.262 91.3725 189.085 90.5208 189.871 89.6584C190.132 89.3709 190.111 88.9315 189.822 88.6711C189.532 88.4108 189.091 88.4325 188.829 88.72C188.06 89.5662 187.258 90.3961 186.446 91.1989C185.366 92.262 184.226 93.3035 183.07 94.2853L176.384 99.4004C176.079 99.6337 176.019 100.073 176.253 100.382C176.39 100.561 176.603 100.653 176.81 100.653H176.815Z" fill="#408F95"/>
<path d="M176.81 100.654C177.066 100.654 177.317 100.513 177.437 100.269C178.419 98.3104 179.051 96.26 179.324 94.1716C179.553 92.4196 179.733 91.0364 179.117 89.4254C178.424 87.6082 177.137 86.5993 175.507 85.3246L175.365 85.2161C174.029 84.1692 172.534 83.3013 170.926 82.6287C170.566 82.4768 170.157 82.645 170.01 83.003C169.862 83.361 170.026 83.7678 170.386 83.9143C171.875 84.5326 173.26 85.3408 174.498 86.3064L174.639 86.4149C176.155 87.6028 177.252 88.4598 177.808 89.9135C178.299 91.1937 178.151 92.3057 177.933 93.9818C177.682 95.9128 177.093 97.8168 176.183 99.6339C176.008 99.9811 176.15 100.399 176.499 100.572C176.597 100.621 176.706 100.648 176.81 100.648V100.654Z" fill="#408F95"/>
<path d="M219.903 84.1528C220.159 84.1528 220.426 84.1365 220.699 84.1039C222.651 83.8544 223.955 82.7967 224.56 82.1892C224.833 81.9125 224.833 81.4731 224.554 81.2019C224.276 80.9307 223.835 80.9307 223.562 81.2074C223.082 81.6901 222.057 82.5255 220.519 82.7207C218.986 82.9214 217.869 82.3573 217.127 81.983C217.018 81.9288 216.931 81.88 216.86 81.842C217.203 81.6684 217.825 81.4677 218.714 81.2291C220.197 80.8331 221.773 80.6324 223.404 80.6324C223.791 80.6324 224.107 80.3178 224.107 79.9326C224.107 79.5475 223.791 79.2329 223.404 79.2329C221.648 79.2329 219.952 79.4499 218.348 79.8784C216.631 80.3395 215.213 80.8005 215.218 81.8637C215.218 82.5038 215.834 82.8997 216.494 83.2306C217.17 83.5669 218.343 84.1582 219.903 84.1582V84.1528Z" fill="#408F95"/>
<path d="M227.657 84.1095C227.924 84.1095 228.181 83.9576 228.301 83.6973C228.459 83.3447 228.301 82.9324 227.946 82.7751C226.665 82.2001 225.563 81.3865 224.68 80.3559C224.211 79.808 223.807 79.2005 223.48 78.555C223.305 78.2078 222.886 78.0722 222.536 78.2458C222.187 78.4194 222.051 78.8371 222.226 79.1842C222.602 79.9328 223.071 80.6325 223.611 81.2672C224.631 82.4605 225.896 83.3989 227.374 84.0553C227.466 84.0987 227.565 84.1149 227.663 84.1149L227.657 84.1095Z" fill="#408F95"/>
<path d="M230.133 76.8842C230.248 76.8842 230.362 76.8679 230.477 76.8408C231.202 76.6564 231.644 75.9132 231.453 75.1918C231.36 74.8392 231.142 74.5463 230.826 74.3673C230.509 74.1829 230.144 74.1341 229.795 74.2209C229.441 74.3131 229.146 74.53 228.961 74.8447C228.775 75.1538 228.726 75.5227 228.813 75.8698C228.906 76.217 229.124 76.5153 229.441 76.6943C229.653 76.8191 229.888 76.8842 230.128 76.8842H230.133ZM230.133 75.4901C230.133 75.4901 230.171 75.5064 230.177 75.5227C230.177 75.5444 230.166 75.5715 230.144 75.5769C230.117 75.5824 230.095 75.5661 230.089 75.5444C230.084 75.5227 230.095 75.4956 230.122 75.4901C230.122 75.4901 230.122 75.4901 230.128 75.4901H230.133Z" fill="#408F95"/>
<path d="M213.168 92.7017C213.391 92.7017 213.577 92.6854 213.697 92.6746C214.406 92.6041 215.12 92.4847 215.813 92.3166C216.761 92.0887 217.699 91.7633 218.594 91.3619C221.839 89.8919 223.578 88.7148 226.463 86.7675C226.785 86.5505 226.867 86.1166 226.648 85.7965C226.43 85.4765 225.994 85.3951 225.672 85.6121C222.755 87.5811 221.146 88.666 218.01 90.0926C217.198 90.4614 216.342 90.7544 215.48 90.9605C214.853 91.1124 214.204 91.2208 213.56 91.2859C213.162 91.3239 212.775 91.2914 212.546 91.2426C212.748 90.9334 213.309 90.3313 214.52 89.4254C214.831 89.1922 214.891 88.7582 214.662 88.449C214.427 88.1398 213.991 88.0802 213.68 88.308C210.948 90.3475 210.872 91.248 211.155 91.8555C211.488 92.5715 212.491 92.7017 213.173 92.7017H213.168Z" fill="#408F95"/>
<path d="M197.391 94.0086C198.972 94.0086 200.532 93.7862 202.053 93.3468C204.393 92.6688 206.602 91.4537 208.445 89.8373C208.734 89.5824 208.761 89.143 208.505 88.8501C208.249 88.5626 207.807 88.5355 207.512 88.7904C205.822 90.2712 203.799 91.3832 201.655 92.007C200.134 92.4464 198.563 92.6471 196.982 92.6091C197.02 92.0775 197.145 91.3236 197.494 90.7486C197.62 90.5425 197.811 90.2278 198.176 89.9512C198.285 89.8698 198.367 89.821 198.558 89.7071L198.716 89.6149C199.163 89.3437 199.529 89.1159 199.769 88.964C200.096 88.7579 200.188 88.3239 199.981 87.9985C199.774 87.673 199.338 87.5808 199.01 87.7869C198.776 87.9388 198.427 88.1558 197.985 88.4215L197.833 88.5138C197.576 88.6711 197.467 88.7362 197.32 88.8446C196.747 89.2786 196.442 89.7831 196.295 90.0271C195.548 91.253 195.548 92.8424 195.564 93.298C195.575 93.656 195.858 93.9435 196.218 93.9706C196.611 93.9977 196.998 94.0086 197.391 94.0086Z" fill="#408F95"/>
<path d="M194.053 81.3321C194.053 81.3321 194.097 81.3321 194.119 81.3321C194.735 81.2779 195.384 81.1802 196.104 81.0446C196.486 80.9687 196.731 80.6053 196.66 80.2255C196.584 79.8458 196.213 79.6018 195.837 79.6723C195.16 79.8025 194.561 79.8892 193.993 79.9435C193.606 79.976 193.323 80.3178 193.355 80.7029C193.388 81.0663 193.694 81.3375 194.053 81.3375V81.3321Z" fill="#408F95"/>
<path d="M192.696 81.4625C193.154 81.4625 193.65 81.4191 194.179 81.3269C194.561 81.2618 194.817 80.8984 194.746 80.5187C194.681 80.139 194.315 79.884 193.933 79.9546C192.15 80.2692 191.136 79.9112 190.94 79.4555C190.76 79.0324 191.185 78.1374 192.543 77.1827C192.859 76.9603 192.935 76.5264 192.712 76.2118C192.488 75.8972 192.052 75.8212 191.736 76.0436C189.925 77.3183 189.145 78.7938 189.647 79.9925C190.051 80.9526 191.152 81.4679 192.696 81.4679V81.4625Z" fill="#408F95"/>
<path d="M193.993 76.4123C194.092 76.4123 194.19 76.3907 194.288 76.3473C195.744 75.6801 197.244 75.078 198.754 74.5518C204.12 72.675 209.814 71.6715 215.671 71.5739C216.058 71.5684 216.369 71.2484 216.363 70.8633C216.358 70.4782 216.025 70.169 215.649 70.1744C209.639 70.272 203.799 71.3026 198.291 73.2283C196.742 73.7707 195.199 74.3891 193.704 75.0725C193.35 75.2353 193.197 75.6475 193.361 76.0001C193.481 76.255 193.732 76.4069 193.999 76.4069L193.993 76.4123Z" fill="#408F95"/>
<path d="M224.631 73.0712C224.92 73.0712 225.192 72.8922 225.291 72.6047C225.421 72.2413 225.231 71.8399 224.865 71.7151C223.769 71.3246 222.635 71.0099 221.495 70.7659C220.41 70.5326 219.292 70.3699 218.179 70.2722C217.918 70.2505 217.699 70.2343 217.547 70.2234C217.154 70.1963 216.827 70.4892 216.8 70.8743C216.778 71.2595 217.067 71.5903 217.454 71.6175C217.601 71.6283 217.808 71.6392 218.054 71.6609C219.106 71.7531 220.164 71.9104 221.195 72.1328C222.275 72.3606 223.349 72.6644 224.391 73.0332C224.467 73.0603 224.549 73.0712 224.625 73.0712H224.631Z" fill="#408F95"/>
<path d="M213.484 72.2737C213.62 72.2737 213.757 72.1978 213.828 72.0676C213.926 71.8778 213.855 71.6499 213.664 71.5469C213.571 71.4981 213.44 71.433 213.271 71.357C212.655 71.0804 212.001 70.8797 211.319 70.7712C210.795 70.6844 210.261 70.6573 209.721 70.679C209.508 70.6898 209.345 70.8688 209.35 71.0804C209.361 71.2919 209.536 71.4547 209.754 71.4492C210.234 71.4275 210.719 71.4547 211.194 71.5306C211.804 71.6282 212.393 71.8072 212.95 72.0568C213.097 72.1219 213.217 72.1815 213.299 72.2249C213.359 72.2575 213.419 72.2683 213.479 72.2683L213.484 72.2737Z" fill="#408F95"/>
<path d="M209.901 73.0167C210.059 73.0167 210.212 72.9191 210.266 72.7564C210.337 72.5557 210.228 72.3387 210.026 72.2682C209.934 72.2356 209.797 72.1922 209.634 72.138C209.018 71.9481 208.374 71.7854 207.714 71.6661C207.207 71.5739 206.689 71.5033 206.182 71.46C205.975 71.4383 205.784 71.601 205.762 71.8125C205.746 72.0241 205.904 72.2085 206.116 72.2302C206.596 72.2736 207.087 72.3387 207.572 72.4255C208.2 72.5394 208.816 72.6913 209.399 72.8703C209.557 72.9191 209.683 72.9625 209.77 72.9896C209.814 73.0059 209.852 73.0113 209.896 73.0113L209.901 73.0167Z" fill="#408F95"/>
<path d="M205.418 74.1125C205.571 74.1125 205.713 74.0258 205.773 73.8793C205.855 73.684 205.762 73.4562 205.566 73.3748C205.473 73.3369 205.336 73.2826 205.173 73.223C204.557 72.9951 203.908 72.8216 203.242 72.7022C202.724 72.6154 202.201 72.5612 201.683 72.5449C201.47 72.5449 201.29 72.7076 201.285 72.9192C201.279 73.1307 201.448 73.3097 201.661 73.3152C202.141 73.3314 202.632 73.3803 203.111 73.4616C203.733 73.5701 204.333 73.7328 204.906 73.9444C205.058 73.9986 205.184 74.0529 205.266 74.0854C205.315 74.1071 205.364 74.118 205.413 74.118L205.418 74.1125Z" fill="#408F95"/>
<path d="M200.27 90.6405C200.319 90.6405 200.368 90.6297 200.412 90.6134L203.335 89.4635C203.531 89.3875 203.63 89.1597 203.553 88.9644C203.477 88.7692 203.248 88.6715 203.051 88.7475L200.128 89.8974C199.932 89.9733 199.834 90.2012 199.91 90.3964C199.97 90.5483 200.118 90.6405 200.27 90.6405Z" fill="#408F95"/>
<path d="M180.616 94.7355C180.769 94.7355 180.922 94.6759 181.036 94.5565C181.811 93.7592 182.443 92.8587 182.923 91.8769C183.567 90.5697 184.172 89.3329 183.725 88.0094C183.272 86.6587 182.002 86.0404 180.655 85.384C179.553 84.847 178.375 84.4998 177.143 84.348C176.821 84.31 176.537 84.5324 176.499 84.8524C176.461 85.167 176.684 85.4545 177.006 85.4925C178.102 85.6227 179.16 85.9373 180.142 86.4146C181.358 87.0113 182.323 87.4778 182.623 88.3728C182.918 89.2461 182.46 90.1845 181.876 91.367C181.451 92.2403 180.884 93.0431 180.196 93.7537C179.973 93.9815 179.984 94.3504 180.213 94.5674C180.327 94.6759 180.469 94.7301 180.616 94.7301V94.7355Z" fill="#408F95"/>
<path d="M283.751 12.7741C283.86 12.7741 283.969 12.747 284.073 12.6982C286.603 11.3963 289.253 10.4579 291.942 9.90464C294.02 9.47612 297.488 8.76011 298.388 10.0186C298.524 10.2138 298.606 10.4633 298.628 10.7563C298.655 11.1414 298.993 11.4289 299.375 11.4072C299.762 11.3801 300.057 11.0492 300.029 10.664C299.991 10.1053 299.822 9.61716 299.533 9.21033C298.104 7.20876 294.38 7.97901 291.658 8.53772C288.844 9.11812 286.079 10.0999 283.429 11.4614C283.086 11.6404 282.949 12.0581 283.129 12.3998C283.255 12.6385 283.5 12.7795 283.751 12.7795V12.7741Z" fill="#408F95"/>
<path d="M295.808 22.1854C296.032 22.1854 296.25 22.0823 296.386 21.8871C297.166 20.7751 297.886 19.6251 298.541 18.4643C298.824 17.9599 299.217 17.2655 299.664 16.3C300.073 15.4213 300.438 14.5154 300.755 13.6041C300.771 13.5607 300.782 13.5173 300.787 13.4685C300.793 13.4143 300.809 13.3329 300.826 13.2299C301.038 12.0257 301.191 10.8052 300.487 10.279C300.286 10.1271 299.849 9.92102 299.206 10.2411C298.857 10.4092 298.715 10.8323 298.884 11.174C299.02 11.4453 299.315 11.5971 299.599 11.5592C299.604 11.8033 299.571 12.2372 299.44 12.9858C299.424 13.0726 299.413 13.1485 299.402 13.2082C299.108 14.0544 298.77 14.8951 298.388 15.7088C297.962 16.6255 297.586 17.2872 297.314 17.7754C296.681 18.8928 295.983 20.0048 295.23 21.0843C295.007 21.3989 295.089 21.8382 295.405 22.0552C295.525 22.142 295.667 22.18 295.803 22.18L295.808 22.1854Z" fill="#408F95"/>
<path d="M264.621 39.3264C264.779 39.3264 264.937 39.2721 265.068 39.1636C266.175 38.2524 267.369 37.5147 268.607 36.9722C269.512 36.5762 270.396 36.3376 271.623 36.0067C272.032 35.8928 272.479 35.7734 272.975 35.6324L274.731 35.1388C276.171 34.732 276.558 34.6235 277.212 34.4011C278.652 33.9129 280.059 33.3271 281.401 32.6653C285.671 30.5553 290.039 27.3658 290.224 27.2301C292.204 25.7656 294.129 24.1654 295.95 22.473C296.234 22.2072 296.25 21.7679 295.983 21.4858C295.716 21.2037 295.274 21.1875 294.99 21.4533C293.207 23.1077 291.326 24.6753 289.39 26.1073C289.346 26.1399 284.929 29.3565 280.773 31.4123C279.486 32.0469 278.139 32.6056 276.76 33.0776C276.144 33.2837 275.8 33.3813 274.355 33.7881L272.599 34.2818C272.108 34.4228 271.666 34.5421 271.257 34.6506C269.976 34.9978 269.054 35.2527 268.051 35.6867C266.687 36.2779 265.384 37.0861 264.179 38.0788C263.879 38.3229 263.841 38.7622 264.086 39.0606C264.222 39.2287 264.424 39.3155 264.626 39.3155L264.621 39.3264Z" fill="#408F95"/>
<path d="M243.636 43.183C243.81 43.183 243.979 43.1179 244.116 42.9931C244.476 42.6568 244.852 42.3368 245.244 42.0384C246.537 41.0512 247.775 40.46 249.476 39.7711C252.945 38.3716 256.686 37.2216 258.125 36.8853C258.338 36.8365 258.867 36.7118 259.549 36.4677C260.138 36.2561 260.71 36.0012 261.261 35.7028C261.305 35.6811 261.343 35.654 261.381 35.6215C261.676 35.3665 261.965 35.0953 262.237 34.8078C262.875 34.1352 263.284 33.5331 263.453 33.2727L263.502 33.2022C265.34 30.5497 267.32 27.9406 269.376 25.4617C271.274 23.1781 272.762 21.3772 274.96 19.2997C277.283 17.1083 279.846 15.1176 282.584 13.3926C282.911 13.1865 283.009 12.7526 282.802 12.4271C282.595 12.1016 282.158 12.004 281.831 12.2101C279.017 13.9839 276.378 16.0288 273.989 18.2854C271.732 20.4225 270.21 22.2505 268.291 24.5667C266.202 27.0836 264.2 29.7198 262.341 32.4103L262.281 32.4971C262.128 32.7249 261.768 33.2565 261.212 33.8477C260.994 34.081 260.759 34.3034 260.519 34.5095C260.056 34.759 259.565 34.976 259.069 35.155C258.463 35.3719 258 35.4804 257.82 35.5238C256.031 35.9415 252.143 37.1837 248.942 38.4801C247.131 39.2124 245.806 39.847 244.383 40.9319C243.952 41.2628 243.538 41.6153 243.145 41.9788C242.861 42.2446 242.85 42.6839 243.118 42.966C243.254 43.1124 243.439 43.183 243.63 43.183H243.636Z" fill="#408F95"/>
<path d="M256.211 55.7996C256.462 55.7996 256.708 55.664 256.833 55.4253L260.787 47.9777C261.457 46.5403 262.068 45.0974 262.619 43.6491C263.034 42.5643 263.421 41.4523 263.77 40.3349C263.884 39.966 263.682 39.5755 263.312 39.4615C262.941 39.3476 262.548 39.5483 262.434 39.9172C262.09 41.0075 261.708 42.0978 261.305 43.1555C260.765 44.5713 260.17 45.987 259.527 47.3594L255.59 54.7744C255.41 55.1161 255.541 55.5392 255.884 55.7182C255.988 55.7725 256.102 55.7996 256.211 55.7996Z" fill="#408F95"/>
<path d="M256.217 55.7998C256.593 55.7998 256.904 55.5015 256.92 55.1218C256.991 52.9358 256.708 50.8094 256.08 48.797C255.551 47.1101 255.137 45.7757 253.905 44.5715C252.514 43.2046 250.922 42.8249 248.904 42.3421L248.729 42.2987C247.077 41.9027 245.354 41.7291 243.614 41.7888C243.227 41.7997 242.921 42.1251 242.938 42.5102C242.949 42.8954 243.265 43.2046 243.663 43.1829C245.277 43.1286 246.87 43.2859 248.402 43.6548L248.577 43.6982C250.453 44.1484 251.805 44.4739 252.923 45.5696C253.905 46.5297 254.237 47.5983 254.739 49.2147C255.322 51.0752 255.584 53.0497 255.513 55.0784C255.502 55.4635 255.802 55.789 256.195 55.7998C256.2 55.7998 256.211 55.7998 256.217 55.7998Z" fill="#408F95"/>
<path d="M285.9 23.4602C286.821 23.4602 288.136 23.3355 289.477 22.5001C291.146 21.4641 291.887 19.9615 292.182 19.1587C292.313 18.7953 292.127 18.3939 291.762 18.2637C291.397 18.1335 290.993 18.318 290.862 18.6814C290.628 19.316 290.044 20.504 288.73 21.3176C287.421 22.1313 286.167 22.0824 285.338 22.0499C285.218 22.0499 285.12 22.0391 285.038 22.0282C285.283 21.7299 285.758 21.2851 286.467 20.6992C287.65 19.7229 288.997 18.8875 290.481 18.2149C290.835 18.0522 290.988 17.6399 290.824 17.2874C290.666 16.9348 290.246 16.7829 289.892 16.9456C288.299 17.6725 286.843 18.5729 285.567 19.6252C284.198 20.7535 283.102 21.7678 283.549 22.7279C283.822 23.3138 284.574 23.4168 285.283 23.444C285.458 23.4494 285.665 23.4602 285.894 23.4602H285.9Z" fill="#408F95"/>
<path d="M295.421 19.6901C295.454 19.6901 295.481 19.6901 295.514 19.6901C295.901 19.6901 296.212 19.3701 296.212 18.9849C296.212 18.5998 295.896 18.2906 295.508 18.2906C295.481 18.2906 295.448 18.2906 295.421 18.2906C294.047 18.2906 292.733 18.0086 291.517 17.4444C290.862 17.1407 290.24 16.7555 289.668 16.3053C289.362 16.0612 288.921 16.1101 288.681 16.4138C288.441 16.7176 288.484 17.1569 288.79 17.3956C289.45 17.9218 290.164 18.3611 290.922 18.7137C292.324 19.3592 293.834 19.6901 295.416 19.6901H295.421Z" fill="#408F95"/>
<path d="M294.467 12.1558C294.767 12.1558 295.072 12.0581 295.323 11.852C295.606 11.6242 295.781 11.2987 295.819 10.9407C295.857 10.5827 295.748 10.2301 295.519 9.94808C295.29 9.66602 294.963 9.49244 294.603 9.45447C294.243 9.4165 293.889 9.51956 293.605 9.75281C293.322 9.98063 293.147 10.3061 293.109 10.6641C293.071 11.0221 293.18 11.3747 293.409 11.6567C293.676 11.9876 294.069 12.1558 294.467 12.1558ZM294.467 10.7617C294.467 10.7617 294.494 10.7617 294.499 10.778C294.51 10.7943 294.51 10.8268 294.494 10.8377C294.478 10.8539 294.445 10.8485 294.434 10.8322C294.423 10.816 294.423 10.7834 294.439 10.7726C294.445 10.7672 294.456 10.7617 294.467 10.7617Z" fill="#408F95"/>
<path d="M284.885 33.7932C285.61 33.7932 286.407 33.3755 286.701 33.2019C287.317 32.8439 287.912 32.4425 288.474 32.0032C289.242 31.4011 289.962 30.7176 290.606 29.9799C292.94 27.2949 294.031 25.5103 295.836 22.5432C296.037 22.2123 295.928 21.7837 295.601 21.583C295.268 21.3823 294.838 21.4908 294.636 21.8163C292.809 24.8159 291.8 26.4704 289.542 29.0632C288.959 29.7358 288.304 30.3542 287.606 30.902C287.099 31.3034 286.554 31.6669 285.992 31.9923C285.643 32.193 285.283 32.3232 285.049 32.372C285.103 32.0086 285.36 31.2275 286.085 29.9039C286.27 29.5676 286.145 29.1391 285.801 28.9547C285.463 28.7703 285.032 28.895 284.847 29.2368C283.216 32.2256 283.522 33.0717 284.034 33.5111C284.274 33.7118 284.569 33.7878 284.88 33.7878L284.885 33.7932Z" fill="#408F95"/>
<path d="M271.104 41.6585C271.186 41.6585 271.268 41.6422 271.35 41.6151C273.204 40.9208 274.9 39.9173 276.389 38.6317C278.232 37.0478 279.732 35.0245 280.73 32.7951C280.888 32.4426 280.73 32.0303 280.375 31.873C280.021 31.7157 279.606 31.873 279.448 32.2256C278.532 34.276 277.158 36.1257 275.473 37.574C274.278 38.6046 272.937 39.4345 271.475 40.0583C271.29 39.5538 271.088 38.827 271.164 38.1544C271.192 37.9157 271.235 37.5523 271.448 37.1454C271.513 37.0261 271.568 36.9502 271.693 36.7657L271.797 36.6139C272.092 36.1799 272.326 35.8219 272.479 35.5832C272.686 35.2578 272.593 34.8238 272.266 34.6177C271.939 34.4116 271.508 34.5038 271.295 34.8293C271.148 35.0625 270.919 35.4097 270.63 35.8328L270.526 35.9846C270.357 36.2342 270.286 36.3372 270.205 36.5C269.867 37.1346 269.801 37.715 269.768 37.9971C269.605 39.4128 270.265 40.8611 270.472 41.2733C270.592 41.5174 270.843 41.6585 271.099 41.6585H271.104Z" fill="#408F95"/>
<path d="M263.803 31.0921C263.922 31.0921 264.042 31.065 264.152 30.9999C264.686 30.6961 265.237 30.3381 265.837 29.915C266.153 29.6926 266.224 29.2533 266 28.9387C265.777 28.6241 265.335 28.5535 265.019 28.7759C264.462 29.1719 263.95 29.5028 263.453 29.7849C263.115 29.9747 263.001 30.4032 263.192 30.7395C263.323 30.9619 263.557 31.0921 263.803 31.0921Z" fill="#408F95"/>
<path d="M261.038 32.1714C261.943 32.1714 263.039 31.7646 264.201 30.9672C264.522 30.7502 264.599 30.3109 264.381 29.9963C264.162 29.6762 263.721 29.6003 263.404 29.8173C261.916 30.837 260.841 30.9401 260.476 30.5984C260.138 30.2838 260.149 29.2965 260.983 27.8699C261.179 27.5391 261.065 27.1105 260.727 26.9153C260.394 26.72 259.963 26.8339 259.767 27.1702C258.655 29.0796 258.562 30.7448 259.522 31.6236C259.92 31.987 260.438 32.1714 261.038 32.1714Z" fill="#408F95"/>
<path d="M261.681 26.6442C261.877 26.6442 262.074 26.5629 262.215 26.4001C263.262 25.1905 264.37 24.0189 265.52 22.9177C269.61 18.9851 274.366 15.7197 279.65 13.2028C279.999 13.0346 280.146 12.617 279.983 12.2698C279.814 11.9226 279.399 11.7762 279.045 11.9389C273.624 14.5155 268.743 17.8731 264.544 21.9088C263.366 23.0425 262.221 24.2467 261.152 25.4889C260.901 25.7818 260.934 26.2211 261.228 26.4761C261.359 26.59 261.523 26.6442 261.686 26.6442H261.681Z" fill="#408F95"/>
<path d="M281.046 12.541C281.128 12.541 281.215 12.5248 281.297 12.4922C281.433 12.438 281.63 12.3675 281.864 12.2861C282.862 11.9335 283.887 11.6406 284.918 11.4128C285.998 11.1741 287.099 11.006 288.201 10.9083C288.588 10.8758 288.872 10.534 288.839 10.1489C288.806 9.76379 288.468 9.48173 288.076 9.51427C286.914 9.61734 285.752 9.79634 284.613 10.0459C283.527 10.2845 282.448 10.5937 281.395 10.968C281.15 11.0548 280.942 11.1307 280.795 11.1904C280.435 11.326 280.25 11.7328 280.392 12.0908C280.501 12.3675 280.763 12.541 281.046 12.541Z" fill="#408F95"/>
<path d="M274.055 15.5732C274.115 15.5732 274.175 15.5569 274.229 15.5298C274.66 15.3128 275.107 15.1392 275.571 15.009C276.165 14.8463 276.782 14.7649 277.387 14.7595C277.55 14.7595 277.687 14.7595 277.774 14.7704C277.998 14.7812 278.172 14.6185 278.183 14.4069C278.194 14.1954 278.03 14.011 277.818 14.0001C277.714 13.9947 277.561 13.9893 277.381 13.9893C276.705 13.9893 276.024 14.0815 275.364 14.2659C274.851 14.4069 274.349 14.6022 273.875 14.8409C273.684 14.9385 273.608 15.1718 273.706 15.3562C273.777 15.4918 273.908 15.5677 274.049 15.5677L274.055 15.5732Z" fill="#408F95"/>
<path d="M271.121 17.7807C271.164 17.7807 271.208 17.7752 271.252 17.759C271.71 17.5962 272.179 17.4552 272.659 17.3305C273.275 17.1731 273.897 17.0592 274.507 16.9779C274.671 16.9562 274.802 16.9453 274.895 16.9345C275.107 16.9128 275.265 16.7284 275.244 16.5168C275.222 16.3053 275.031 16.1534 274.824 16.1697C274.726 16.1805 274.584 16.1913 274.415 16.213C273.777 16.2944 273.122 16.4192 272.473 16.5819C271.972 16.7067 271.475 16.8585 270.995 17.0321C270.794 17.1026 270.69 17.325 270.761 17.5257C270.815 17.683 270.968 17.7807 271.126 17.7807H271.121Z" fill="#408F95"/>
<path d="M267.494 20.6123C267.544 20.6123 267.593 20.6015 267.647 20.5798C268.094 20.3899 268.558 20.238 269.027 20.1133C269.638 19.956 270.254 19.8529 270.859 19.8095C271.023 19.7987 271.154 19.7933 271.246 19.7878C271.459 19.7824 271.628 19.6034 271.623 19.3919C271.617 19.1803 271.443 19.0176 271.225 19.0176C271.126 19.0176 270.979 19.0284 270.805 19.0393C270.15 19.0881 269.485 19.1966 268.831 19.3702C268.329 19.5003 267.827 19.6685 267.347 19.8746C267.151 19.956 267.058 20.1838 267.14 20.3791C267.2 20.5255 267.347 20.6123 267.494 20.6123Z" fill="#408F95"/>
<path d="M273.482 36.9447C273.586 36.9447 273.684 36.9068 273.76 36.8254L275.936 34.5689C276.083 34.417 276.078 34.1729 275.925 34.0265C275.773 33.88 275.527 33.8854 275.38 34.0373L273.204 36.2938C273.057 36.4457 273.062 36.6898 273.215 36.8363C273.291 36.9068 273.384 36.9447 273.482 36.9447Z" fill="#408F95"/>
<path d="M257.242 48.835C257.482 48.835 257.705 48.6886 257.787 48.4499C258.158 47.403 258.354 46.3236 258.382 45.2333C258.414 43.7741 258.453 42.4018 257.493 41.382C256.517 40.346 255.104 40.308 253.605 40.2646C252.377 40.2321 251.161 40.4056 249.978 40.7799C249.673 40.8775 249.504 41.203 249.602 41.5068C249.7 41.8105 250.027 41.9787 250.332 41.881C251.385 41.5447 252.481 41.3929 253.572 41.42C254.93 41.4579 255.999 41.4851 256.647 42.174C257.28 42.8466 257.253 43.888 257.226 45.2061C257.204 46.1771 257.024 47.1426 256.697 48.0702C256.593 48.3685 256.751 48.6994 257.051 48.8025C257.116 48.8242 257.182 48.835 257.242 48.835Z" fill="#408F95"/>
</g>
<defs>
<clipPath id="clip0_2248_12686">
<rect width="301" height="138" fill="white" transform="matrix(-1 0 0 1 301 0)"/>
</clipPath>
</defs>
</svg>
