<svg width="18" height="18" viewBox="0 0 18 18" fill="none" xmlns="http://www.w3.org/2000/svg">
<g clip-path="url(#clip0_227_2731)">
<path d="M10.2471 10.0965C10.2203 10.0965 10.1943 10.0872 10.1735 10.0676C10.1319 10.0276 10.131 9.96216 10.1709 9.92135C10.3303 9.75979 10.5106 9.64075 10.7073 9.56762C10.9595 9.47324 11.1502 9.48259 11.6104 9.5047C11.7057 9.50895 11.8123 9.51405 11.9345 9.51915C12.0601 9.52426 12.3773 9.53616 12.6079 9.53786C12.8332 9.53956 13.218 9.53191 13.965 9.44433C14.5898 9.3712 15.0024 9.32274 15.5778 9.19859C15.5865 9.19689 16.4895 8.99707 17.4567 8.47414C17.5407 8.42907 17.7947 8.29132 17.7869 8.19779C17.7799 8.11191 17.5607 8.01412 17.4029 7.97586C16.415 8.02688 15.4383 8.13232 14.4997 8.28962C14.4105 8.30493 12.2993 8.6527 11.1398 8.43077C10.5409 8.31598 10.1622 7.98436 10.1466 7.96991C10.1301 7.95545 10.1163 7.9427 10.1093 7.9359C10.0677 7.89593 10.066 7.83131 10.1067 7.78964C10.1466 7.74883 10.2133 7.74713 10.2558 7.78709C10.2627 7.79305 10.274 7.8041 10.2887 7.81685C10.2922 7.82026 10.6423 8.12466 11.1805 8.22755C12.3019 8.44183 14.4434 8.08895 14.465 8.08555C15.4157 7.92654 16.4063 7.82026 17.4081 7.76839C17.4177 7.76839 17.4281 7.76839 17.4376 7.77094C17.5269 7.79135 17.9749 7.90699 17.9975 8.18078C18.0157 8.40696 17.7297 8.56172 17.5589 8.6544C16.6524 9.14417 15.7763 9.3678 15.6237 9.39841C15.0379 9.52681 14.621 9.57528 13.9901 9.64925C13.231 9.73853 12.8366 9.74618 12.6061 9.74363C12.3721 9.74193 12.0523 9.73003 11.9258 9.72493C11.8027 9.71983 11.6953 9.71472 11.6 9.71047C11.1588 9.68921 10.9933 9.68071 10.7827 9.75979C10.6155 9.82271 10.4603 9.92475 10.3225 10.0642C10.3017 10.0855 10.274 10.0957 10.2471 10.0957V10.0965Z" fill="white"/>
<path d="M6.80917 8.97412C6.79183 8.97412 6.7745 8.96987 6.75803 8.96136C6.7069 8.9333 6.6887 8.87123 6.71644 8.82106C6.78057 8.70712 6.80657 8.59829 6.79357 8.4971C6.74677 8.12892 6.20079 7.89084 5.99453 7.80155L5.97633 7.7939C5.95206 7.7837 3.51335 6.69616 1.52529 3.84511C1.3459 3.58747 1.32164 3.37319 1.3095 3.27031L1.3069 3.24735C1.27484 2.99311 1.4005 2.78649 1.46723 2.6751C1.4941 2.63003 1.55216 2.61217 1.60069 2.63343C1.74195 2.69465 1.87975 2.76693 2.01061 2.84856C2.24633 2.99481 2.46473 3.17252 2.65799 3.37659C3.03411 3.77283 3.45616 4.12911 3.86521 4.47433C4.133 4.70051 4.40945 4.93434 4.67118 5.17668C5.47455 5.92239 6.59077 6.56437 7.98779 7.0856C8.04239 7.10601 8.06925 7.16553 8.04845 7.2191C8.02765 7.27267 7.96699 7.29903 7.91239 7.27862C6.48938 6.74718 5.35062 6.09075 4.52645 5.32633C4.26819 5.0874 3.99347 4.85442 3.72741 4.62994C3.31403 4.28131 2.88764 3.92079 2.50806 3.52114C2.43613 3.44547 2.23073 3.22864 1.89795 3.02287C1.80262 2.96335 1.70295 2.90978 1.60156 2.86131C1.54869 2.9574 1.49843 3.08154 1.51663 3.22184L1.51923 3.2482C1.52963 3.34088 1.54956 3.51434 1.69949 3.72947C3.65462 6.53291 6.03873 7.59578 6.06213 7.60599L6.08033 7.61364C6.31605 7.71567 6.94176 7.98777 7.00329 8.47244C7.02149 8.61784 6.98769 8.7692 6.90103 8.9214C6.88196 8.95541 6.84556 8.97497 6.80917 8.97497V8.97412Z" fill="white"/>
<path d="M10.1232 7.83119C10.1171 7.83119 10.1111 7.83119 10.105 7.82949C10.0478 7.81929 10.0097 7.76572 10.0192 7.7096C10.2931 6.18501 10.5643 4.86959 10.8252 3.79992C11.223 2.16734 11.2654 1.99643 11.281 1.96412C11.2836 1.95902 11.5401 1.41653 11.6355 0.544969C11.6441 0.469292 11.6476 0.360454 11.5852 0.29328C11.5566 0.262669 11.515 0.241412 11.4604 0.230358C11.4569 0.230358 11.4535 0.228657 11.45 0.227807C11.3755 0.204849 11.3053 0.200598 11.2412 0.214202C11.1649 0.231208 11.0384 0.352801 10.8659 0.57643C10.0192 1.67332 9.67341 3.05846 9.33889 4.39768C9.19676 4.96568 9.0503 5.55324 8.86657 6.11528C8.86051 6.13399 8.85357 6.1578 8.84577 6.18501C8.79898 6.34827 8.71231 6.65352 8.47052 6.93072C8.39166 7.02085 8.30326 7.10248 8.2062 7.17476C8.1594 7.20962 8.09353 7.20027 8.05887 7.15435C8.02334 7.10843 8.03287 7.04381 8.07967 7.0098C8.1646 6.94688 8.2426 6.8746 8.31106 6.79637C8.52252 6.55404 8.59878 6.28789 8.64385 6.12974C8.65251 6.09998 8.65945 6.07362 8.66638 6.05236C8.84751 5.49797 8.9931 4.91381 9.13436 4.34921C9.47408 2.98958 9.82507 1.58319 10.6986 0.452286C10.917 0.169987 11.0609 0.0424418 11.1961 0.0126813C11.2957 -0.00942651 11.4015 -0.00347441 11.5089 0.028837C11.6043 0.0492442 11.6823 0.0909089 11.7403 0.153831C11.8738 0.297532 11.8521 0.500753 11.8443 0.567077C11.7447 1.47605 11.4821 2.02959 11.4708 2.05255C11.4561 2.09847 11.2957 2.75575 11.0297 3.84498C10.7688 4.91381 10.4984 6.22497 10.2255 7.74531C10.2168 7.79548 10.1717 7.83034 10.1215 7.83034L10.1232 7.83119Z" fill="white"/>
<path d="M0.842359 13.9074C0.435907 13.9074 0.133452 13.7646 0.00952284 13.5044C-0.00867648 13.4661 -0.00174341 13.4219 0.0277222 13.3913C1.03215 12.3156 2.3529 11.5912 3.63032 10.8914C4.67028 10.3217 5.74491 9.73243 6.64101 8.95696C6.68434 8.91954 6.75107 8.92294 6.79007 8.96631C6.8282 9.00882 6.82474 9.0743 6.78054 9.11256C5.86711 9.90249 4.78208 10.4968 3.73258 11.0725C2.49156 11.7527 1.20981 12.4551 0.233981 13.4763C0.433307 13.7595 0.955888 13.7042 1.11882 13.6795C2.5037 13.4661 3.73258 12.7034 4.92074 11.9662C5.42512 11.6533 5.94597 11.3301 6.47462 11.0504L6.50668 11.0334C6.64534 10.9586 6.93393 10.8038 7.32738 10.7341C7.54318 10.6958 7.76504 10.6865 7.98689 10.706C8.04496 10.7111 8.08742 10.7613 8.08222 10.8183C8.07702 10.8752 8.02589 10.9169 7.96783 10.9118C7.76504 10.8939 7.56138 10.9033 7.36378 10.9373C7.00413 11.0011 6.74587 11.1397 6.60635 11.2145L6.57255 11.2324C6.04997 11.5087 5.53172 11.8301 5.0308 12.1405C3.82445 12.8887 2.57736 13.6625 1.14915 13.8827C1.03995 13.8998 0.936822 13.9074 0.838892 13.9074H0.842359Z" fill="white"/>
<path d="M11.7611 17.9999C11.4768 17.9999 11.1648 17.8137 10.8893 17.4694C9.99662 16.3529 9.62137 14.9533 9.25825 13.5988C9.10745 13.0367 8.95146 12.4551 8.7608 11.9033C8.75387 11.882 8.74607 11.8565 8.73653 11.8268C8.68887 11.6686 8.60827 11.405 8.39248 11.1652C8.32228 11.0879 8.24342 11.0173 8.15762 10.9552C8.11082 10.922 8.10043 10.8566 8.13422 10.8107C8.16889 10.7647 8.23475 10.7545 8.28155 10.7877C8.37948 10.8583 8.47048 10.9382 8.55021 11.0275C8.7972 11.3013 8.88906 11.604 8.93846 11.7664C8.94626 11.7936 8.95406 11.8166 8.96013 11.8353C9.15339 12.3939 9.31025 12.9789 9.46191 13.5444C9.81983 14.8776 10.189 16.2568 11.0548 17.3393C11.157 17.4668 11.5011 17.8562 11.8434 17.7823C11.8391 16.3827 11.3884 15.0111 10.9525 13.6838C10.5842 12.5614 10.2029 11.4008 10.0833 10.212C10.0772 10.1551 10.1197 10.1049 10.1777 10.099C10.2358 10.093 10.2869 10.1347 10.293 10.1916C10.4109 11.3582 10.7879 12.5079 11.1536 13.62C11.6025 14.9865 12.0661 16.3997 12.054 17.8588C12.054 17.9005 12.028 17.9379 11.9881 17.954C11.9154 17.9829 11.8391 17.9974 11.7602 17.9974L11.7611 17.9999Z" fill="white"/>
<path d="M11.0426 1.43948C10.9906 1.43948 10.9412 1.42588 10.8996 1.39952C10.7523 1.30514 10.7679 1.09936 10.8138 0.984573C10.8632 0.86128 10.9837 0.733735 11.131 0.746489C11.2012 0.752441 11.2471 0.788154 11.2653 0.801759C11.3867 0.894441 11.4508 1.10191 11.3529 1.26177C11.3017 1.3451 11.2125 1.40887 11.1145 1.43098C11.0903 1.43608 11.066 1.43948 11.0426 1.43948ZM11.0149 1.22606C11.0261 1.23286 11.0452 1.23456 11.0669 1.22946C11.1085 1.22011 11.1509 1.19035 11.1726 1.15548C11.2142 1.08746 11.1778 0.997328 11.1353 0.964166C11.1284 0.959064 11.1206 0.952262 11.1128 0.952262C11.0885 0.948861 11.0339 1.00073 11.0105 1.06025C10.9871 1.11892 10.9845 1.20735 11.0149 1.22691V1.22606Z" fill="white"/>
<path d="M10.7774 2.32475C10.7341 2.32475 10.6908 2.31284 10.6552 2.28903C10.5989 2.25162 10.5634 2.187 10.559 2.11217C10.5538 2.03139 10.585 1.95402 10.6422 1.9047C10.696 1.85878 10.774 1.83752 10.8502 1.84858C10.9135 1.85793 10.9646 1.88769 10.9923 1.93276C11.0097 1.95912 11.0166 1.99228 11.0149 2.0399C11.0123 2.10707 11.0088 2.21931 10.9109 2.28393C10.871 2.31029 10.8242 2.3239 10.7783 2.3239L10.7774 2.32475ZM10.7731 2.11727C10.7774 2.11727 10.787 2.11727 10.7913 2.11387C10.7982 2.10707 10.8008 2.07646 10.8017 2.0535C10.793 2.0535 10.7844 2.0569 10.7792 2.06115C10.7662 2.07306 10.7644 2.10707 10.7722 2.11812L10.7731 2.11727Z" fill="white"/>
<path d="M10.319 3.86367C10.2739 3.86367 10.2289 3.85262 10.189 3.82966C10.0789 3.76674 10.0512 3.63919 10.0616 3.54906C10.0746 3.43172 10.1552 3.3637 10.2081 3.31948C10.2462 3.28717 10.293 3.25401 10.3563 3.25061C10.4377 3.2455 10.5192 3.29482 10.5582 3.3739C10.5894 3.43767 10.5894 3.49464 10.585 3.54736C10.5772 3.63834 10.566 3.76249 10.4516 3.82881C10.4117 3.85177 10.3649 3.86367 10.319 3.86367ZM10.2947 3.6511C10.3103 3.6596 10.332 3.6579 10.3441 3.6511C10.3658 3.63834 10.371 3.57797 10.3753 3.52865C10.3788 3.49124 10.3753 3.47849 10.3693 3.46403C10.3693 3.46233 10.3675 3.46148 10.3667 3.45978C10.3632 3.46233 10.358 3.46573 10.3502 3.47253C10.3025 3.51335 10.2748 3.53716 10.2713 3.57202C10.2696 3.58392 10.2705 3.63664 10.2947 3.65025V3.6511Z" fill="white"/>
<path d="M9.41948 6.62054C9.38395 6.62054 9.34929 6.61374 9.31636 6.59674C9.22796 6.55167 9.17336 6.44368 9.16816 6.30678C9.16383 6.18264 9.20369 6.02363 9.32762 5.94966C9.43422 5.88589 9.60668 5.88503 9.69421 5.98537C9.72714 6.02278 9.73754 6.0636 9.74447 6.10271C9.76527 6.2192 9.793 6.37906 9.67428 6.5049C9.61274 6.57038 9.51395 6.62139 9.41948 6.62139V6.62054ZM9.41342 6.41307C9.42815 6.41817 9.48448 6.40032 9.52001 6.3629C9.56421 6.31614 9.55555 6.24301 9.53735 6.13672C9.53475 6.12142 9.53301 6.11632 9.53215 6.11632C9.52261 6.10951 9.46715 6.10781 9.43682 6.12567C9.40302 6.14608 9.37875 6.2141 9.37789 6.28723C9.37789 6.3663 9.40389 6.40712 9.41255 6.41307H9.41342Z" fill="white"/>
<path d="M9.4455 7.27098C9.42904 7.27098 9.41257 7.26758 9.39697 7.25908L9.06592 7.08902C9.01392 7.06266 8.99399 7.00059 9.02085 6.94957C9.04772 6.8994 9.11098 6.879 9.16298 6.90535L9.49404 7.07541C9.54603 7.10177 9.56597 7.16385 9.5391 7.21486C9.52003 7.25058 9.48364 7.27013 9.4455 7.27013V7.27098Z" fill="white"/>
<path d="M9.15342 8.19695C9.14562 8.19695 9.13782 8.19695 9.13002 8.1944C8.96536 8.15869 8.8241 8.04815 8.75044 7.9002C8.7253 7.84918 8.74697 7.78711 8.79984 7.76245C8.85183 7.73779 8.9151 7.75905 8.94023 7.81091C8.9853 7.9019 9.07542 7.97162 9.17595 7.99373C9.23315 8.00648 9.26868 8.06175 9.25569 8.11702C9.24442 8.16549 9.20109 8.1978 9.15256 8.1978L9.15342 8.19695Z" fill="white"/>
<path d="M7.94438 8.71651C7.91232 8.71651 7.88112 8.70291 7.86032 8.6757C7.82479 8.63063 7.83432 8.56516 7.88025 8.53115C7.93832 8.48778 7.98078 8.42571 7.99985 8.35684C8.01545 8.30157 8.07265 8.26926 8.12898 8.28456C8.18531 8.29987 8.21824 8.35599 8.20264 8.41126C8.17144 8.52349 8.10211 8.62468 8.00765 8.69526C7.98858 8.70971 7.96605 8.71651 7.94352 8.71651H7.94438Z" fill="white"/>
<path d="M7.21217 7.94192C7.1619 7.94192 7.1177 7.90706 7.10904 7.85689C7.09864 7.80077 7.1359 7.7472 7.19397 7.73615C7.26157 7.72425 7.32743 7.68768 7.3725 7.63752C7.41149 7.595 7.47736 7.59075 7.52156 7.62901C7.56489 7.66728 7.56922 7.7319 7.53022 7.77526C7.45309 7.86114 7.3465 7.91981 7.2321 7.94022C7.22603 7.94107 7.2191 7.94192 7.21303 7.94192H7.21217Z" fill="white"/>
<path d="M9.30162 9.22316C9.25396 9.22316 9.21062 9.1917 9.19936 9.14408C9.17942 9.06075 9.18202 8.97402 9.20889 8.89324C9.22622 8.83882 9.28602 8.80906 9.34149 8.82607C9.39695 8.84308 9.42728 8.90175 9.40995 8.95617C9.39522 9.00038 9.39348 9.05055 9.40475 9.09561C9.41862 9.15088 9.38395 9.207 9.32675 9.22061C9.31809 9.22231 9.31029 9.22316 9.30162 9.22316Z" fill="white"/>
<path d="M10.6579 9.1968C10.6085 9.1968 10.5643 9.16194 10.5548 9.11262L10.5054 8.85243C10.495 8.79631 10.5323 8.74274 10.5895 8.73169C10.6467 8.72148 10.7013 8.75805 10.7125 8.81417L10.7619 9.07436C10.7723 9.13048 10.7351 9.18405 10.6779 9.1951C10.6718 9.19595 10.6649 9.1968 10.6588 9.1968H10.6579Z" fill="white"/>
<path d="M8.47827 9.6085C8.47827 9.6085 8.47133 9.6085 8.46787 9.6085C8.34827 9.59745 8.24774 9.50137 8.23214 9.38487C8.22434 9.3279 8.26594 9.27689 8.32314 9.26923C8.38034 9.26158 8.4332 9.3024 8.441 9.35851C8.4436 9.37892 8.46613 9.40103 8.4878 9.40273C8.54586 9.40783 8.58833 9.45885 8.58313 9.51497C8.57793 9.56854 8.532 9.6085 8.47827 9.6085Z" fill="white"/>
<path d="M8.34831 10.3236C8.33877 10.3236 8.32837 10.3219 8.31884 10.3193C8.17931 10.2794 8.07705 10.1476 8.07532 10.0047C8.07532 9.94776 8.12125 9.901 8.17931 9.90015H8.18018C8.23824 9.90015 8.28504 9.94606 8.28591 10.0022C8.28591 10.0541 8.32664 10.1059 8.37777 10.1204C8.43324 10.1365 8.46617 10.1935 8.4497 10.2488C8.4367 10.2938 8.39424 10.3236 8.34831 10.3236Z" fill="white"/>
<path d="M4.27337 11.9339C4.23783 11.9339 4.20317 11.9262 4.17024 11.9101C4.08184 11.865 4.02638 11.757 4.02204 11.6193C4.01771 11.4951 4.05757 11.3361 4.1815 11.2622C4.2881 11.1984 4.46056 11.1975 4.54809 11.2979C4.58102 11.3353 4.59142 11.3761 4.59835 11.4152C4.61829 11.5317 4.64689 11.6916 4.52816 11.8174C4.46576 11.8829 4.36783 11.9339 4.27337 11.9339ZM4.2673 11.7264C4.28203 11.7315 4.33836 11.7137 4.3739 11.6763C4.41809 11.6295 4.40943 11.5564 4.39123 11.4501C4.38863 11.4348 4.3869 11.4297 4.38603 11.4288C4.3765 11.422 4.32103 11.4203 4.2907 11.4382C4.2569 11.4586 4.23177 11.5266 4.23177 11.5997C4.23177 11.678 4.25777 11.7196 4.26643 11.7256L4.2673 11.7264Z" fill="white"/>
<path d="M16.9227 8.54458C16.8777 8.54458 16.8326 8.53353 16.7928 8.51057C16.6827 8.44765 16.655 8.3201 16.6654 8.22997C16.6784 8.11263 16.759 8.0446 16.8118 8.00039C16.85 7.96808 16.8967 7.93491 16.96 7.93151C17.0423 7.92641 17.1229 7.97573 17.1619 8.05481C17.1931 8.11858 17.1931 8.17555 17.1888 8.22742C17.181 8.3184 17.1697 8.44254 17.0553 8.50972C17.0155 8.53268 16.9687 8.54458 16.9227 8.54458ZM16.8985 8.332C16.9141 8.34051 16.9357 8.33881 16.9479 8.332C16.9695 8.31925 16.9747 8.25888 16.9791 8.20956C16.9825 8.17215 16.9791 8.15939 16.973 8.14494C16.973 8.14324 16.9713 8.14239 16.9704 8.14154C16.9669 8.14409 16.9617 8.14749 16.9539 8.15429C16.9063 8.19511 16.8785 8.21892 16.8751 8.25378C16.8733 8.26568 16.8742 8.3184 16.8985 8.332Z" fill="white"/>
<path d="M16.2616 8.68485C16.2182 8.68485 16.1749 8.67295 16.1394 8.64914C16.083 8.61173 16.0475 8.54711 16.0432 8.47228C16.038 8.3915 16.0692 8.31412 16.1255 8.26481C16.1792 8.21889 16.2572 8.19763 16.3335 8.20869C16.3968 8.21804 16.4479 8.2478 16.4756 8.29287C16.4929 8.32093 16.4999 8.35324 16.4981 8.4C16.4955 8.46718 16.4921 8.57942 16.3942 8.64404C16.3543 8.6704 16.3075 8.684 16.2616 8.684V8.68485ZM16.2572 8.47823C16.2616 8.47823 16.2711 8.47823 16.2754 8.47483C16.2824 8.46803 16.285 8.43742 16.2858 8.41446C16.2772 8.41446 16.2685 8.41786 16.2633 8.42211C16.2503 8.43317 16.2494 8.46803 16.2564 8.47908L16.2572 8.47823Z" fill="white"/>
<path d="M14.9485 9.06413C14.9035 9.06413 14.8584 9.05307 14.8185 9.03011C14.7076 8.96719 14.6808 8.83965 14.6912 8.74952C14.7042 8.63217 14.7847 8.56415 14.8376 8.51908C14.8757 8.48677 14.9225 8.45361 14.9858 8.45021C15.0681 8.44596 15.1496 8.49443 15.1877 8.5735C15.2189 8.63728 15.2189 8.69425 15.2146 8.74611C15.2068 8.8371 15.1955 8.96124 15.0811 9.02756C15.0413 9.05052 14.9945 9.06243 14.9485 9.06243V9.06413ZM14.9243 8.85155C14.9399 8.86005 14.9624 8.85835 14.9737 8.85155C14.9953 8.8388 15.0005 8.77843 15.0049 8.72911C15.0083 8.6917 15.0049 8.67894 14.9988 8.66449C14.9988 8.66279 14.9971 8.66193 14.9962 8.66108C14.9927 8.66364 14.9875 8.66704 14.9797 8.67384C14.9321 8.71465 14.9052 8.73846 14.9009 8.77332C14.8991 8.78523 14.9 8.83795 14.9243 8.85155Z" fill="white"/>
<path d="M3.58614 12.087C3.54281 12.087 3.49948 12.075 3.46395 12.0512C3.40761 12.0138 3.37208 11.9492 3.36775 11.8744C3.36255 11.7936 3.39375 11.7162 3.45008 11.6669C3.50381 11.621 3.58181 11.5997 3.65807 11.6108C3.72134 11.6201 3.77247 11.6499 3.8002 11.695C3.81753 11.7213 3.82447 11.7545 3.82273 11.8021C3.82013 11.8693 3.81667 11.9815 3.71874 12.0461C3.67887 12.0725 3.63207 12.0861 3.58614 12.0861V12.087ZM3.58181 11.8803C3.58614 11.8803 3.59567 11.8803 3.60001 11.8769C3.60694 11.8701 3.60954 11.8395 3.61127 11.8166C3.60261 11.8166 3.59394 11.82 3.58874 11.8242C3.57574 11.8361 3.57487 11.8701 3.58181 11.8812V11.8803Z" fill="white"/>
<path d="M2.11377 13.0716C2.06177 13.0716 2.01237 13.058 1.97078 13.0316C1.82345 12.9372 1.83905 12.7314 1.88498 12.6167C1.93438 12.4934 2.05397 12.3658 2.20217 12.3786C2.2715 12.3845 2.3183 12.4202 2.33563 12.4338C2.45696 12.5265 2.52109 12.734 2.42403 12.8939C2.37289 12.9772 2.28363 13.041 2.1857 13.0631C2.16144 13.0682 2.13717 13.0716 2.11377 13.0716ZM2.18224 12.5843C2.15624 12.5843 2.1051 12.6337 2.08171 12.6923C2.05831 12.751 2.05571 12.8394 2.08691 12.859C2.09817 12.8658 2.11724 12.8675 2.1389 12.8624C2.1805 12.853 2.22297 12.8233 2.24377 12.7884C2.28536 12.7204 2.24983 12.6294 2.2065 12.5971C2.20043 12.592 2.19177 12.5852 2.18397 12.5852C2.18397 12.5852 2.1831 12.5852 2.18224 12.5852V12.5843Z" fill="white"/>
<path d="M6.19214 7.41385C6.14014 7.41385 6.09074 7.40024 6.04915 7.37388C5.90182 7.2795 5.91742 7.07373 5.96335 6.95894C6.01275 6.83564 6.13408 6.7081 6.28054 6.72085C6.34987 6.72681 6.39667 6.76252 6.414 6.77612C6.53533 6.86966 6.59946 7.07628 6.5024 7.23614C6.45126 7.31947 6.362 7.38324 6.26407 7.40535C6.23981 7.41045 6.21554 7.41385 6.19214 7.41385ZM6.16441 7.20042C6.17567 7.20808 6.19474 7.20893 6.21641 7.20382C6.258 7.19447 6.30047 7.16471 6.32127 7.12985C6.36287 7.06182 6.32647 6.97169 6.284 6.93853C6.27794 6.93343 6.26927 6.92663 6.26147 6.92663C6.23461 6.92323 6.18261 6.97424 6.15921 7.03462C6.13581 7.09329 6.13321 7.18172 6.16441 7.20127V7.20042Z" fill="white"/>
<path d="M9.63696 11.5965C9.58497 11.5965 9.53557 11.5829 9.49397 11.5565C9.34664 11.4621 9.36224 11.2563 9.40817 11.1416C9.45757 11.0183 9.5763 10.8907 9.72536 10.9035C9.79469 10.9094 9.84149 10.9451 9.85882 10.9587C9.98015 11.0514 10.0443 11.2589 9.94722 11.4188C9.89609 11.5029 9.80682 11.5659 9.70803 11.588C9.68376 11.5931 9.6595 11.5965 9.6361 11.5965H9.63696ZM9.60923 11.383C9.6205 11.3898 9.63956 11.3915 9.66123 11.3864C9.70283 11.3771 9.74529 11.3473 9.76696 11.3125C9.80856 11.2444 9.77216 11.1543 9.72969 11.1211C9.72363 11.116 9.7141 11.1092 9.70716 11.1092C9.6855 11.1058 9.6283 11.1569 9.6049 11.2172C9.5815 11.2759 9.5789 11.3643 9.6101 11.3839L9.60923 11.383Z" fill="white"/>
<path d="M11.0956 16.6853C11.0436 16.6853 10.9942 16.6717 10.9526 16.6454C10.8053 16.551 10.8209 16.3452 10.8668 16.2304C10.9162 16.1071 11.0367 15.9796 11.184 15.9923C11.2533 15.9983 11.3001 16.034 11.3174 16.0476C11.4388 16.1403 11.5029 16.3478 11.4058 16.5076C11.3547 16.5909 11.2654 16.6547 11.1675 16.6768C11.1432 16.6819 11.119 16.6853 11.0956 16.6853ZM11.0679 16.4719C11.0791 16.4796 11.0982 16.4804 11.1198 16.4753C11.1614 16.466 11.2039 16.4362 11.2247 16.4013C11.2663 16.3333 11.2308 16.2423 11.1874 16.21C11.1814 16.2049 11.1727 16.1981 11.1649 16.1981C11.1415 16.1939 11.086 16.2457 11.0627 16.3061C11.0393 16.3648 11.0367 16.4532 11.0679 16.4728V16.4719Z" fill="white"/>
<path d="M10.1821 14.1966C10.1465 14.1966 10.1119 14.1889 10.0789 14.1728C9.99053 14.1277 9.93507 14.0197 9.93073 13.882C9.9264 13.7578 9.96627 13.5988 10.0902 13.5249C10.1968 13.4611 10.3693 13.4602 10.4568 13.5606C10.4897 13.598 10.5001 13.6388 10.507 13.6779C10.5278 13.7944 10.5556 13.9543 10.4368 14.0801C10.3753 14.1456 10.2765 14.1966 10.1821 14.1966ZM10.176 13.9891C10.1907 13.9942 10.2471 13.9764 10.2826 13.9389C10.3268 13.8922 10.3181 13.8191 10.2999 13.7128C10.2973 13.6975 10.2956 13.6924 10.2947 13.6915C10.2852 13.6847 10.2297 13.683 10.1994 13.7009C10.1656 13.7213 10.1405 13.7893 10.1405 13.8624C10.1405 13.9406 10.1665 13.9823 10.1751 13.9883L10.176 13.9891Z" fill="white"/>
<path d="M9.96199 13.2442C9.91866 13.2442 9.87533 13.2323 9.8398 13.2085C9.78347 13.1711 9.74794 13.1064 9.7436 13.0316C9.7384 12.9508 9.7696 12.8734 9.82593 12.8241C9.87966 12.7782 9.95766 12.757 10.0339 12.768C10.0972 12.7774 10.1483 12.8071 10.1761 12.8522C10.1934 12.8786 10.2003 12.9117 10.1986 12.9593C10.196 13.0265 10.1925 13.1387 10.0946 13.2034C10.0547 13.2297 10.0079 13.2433 9.96199 13.2433V13.2442ZM9.95766 13.0367C9.962 13.0367 9.97153 13.0367 9.97586 13.0333C9.98279 13.0265 9.98539 12.9959 9.98626 12.9729C9.97759 12.9729 9.96893 12.9763 9.96373 12.9806C9.95073 12.9925 9.94986 13.0265 9.9568 13.0376L9.95766 13.0367Z" fill="white"/>
<path d="M2.3182 4.08476C2.27486 4.08476 2.23153 4.07285 2.196 4.04904C2.13967 4.01163 2.10414 3.94701 2.0998 3.87218C2.0946 3.7914 2.1258 3.71403 2.18213 3.66471C2.23587 3.61879 2.31386 3.59753 2.39013 3.60859C2.45339 3.61794 2.50366 3.6477 2.53226 3.69277C2.54959 3.71998 2.55652 3.75314 2.55479 3.79991C2.55219 3.86708 2.54872 3.97932 2.45079 4.04394C2.41093 4.0703 2.36413 4.08391 2.3182 4.08391V4.08476ZM2.31386 3.87813C2.31906 3.87813 2.32773 3.87813 2.33206 3.87473C2.339 3.86793 2.3416 3.83732 2.34246 3.81436C2.3338 3.81436 2.32513 3.81776 2.31993 3.82201C2.30693 3.83307 2.30606 3.86793 2.313 3.87898L2.31386 3.87813Z" fill="white"/>
<path d="M2.8313 4.9053C2.7793 4.9053 2.7299 4.8917 2.68831 4.86534C2.54098 4.77096 2.55658 4.56518 2.60251 4.45039C2.65191 4.3271 2.77064 4.19955 2.9197 4.21231C2.98903 4.21826 3.03583 4.25397 3.05316 4.26758C3.17449 4.36026 3.23862 4.56773 3.14156 4.72759C3.09042 4.81092 3.00116 4.87469 2.90323 4.8968C2.87897 4.9019 2.8547 4.9053 2.8313 4.9053ZM2.89976 4.41808C2.87377 4.41808 2.82177 4.4674 2.79837 4.52607C2.77497 4.58474 2.77237 4.67317 2.80357 4.69273C2.81483 4.69953 2.8339 4.70123 2.85557 4.69613C2.89716 4.68678 2.93963 4.65702 2.96043 4.62215C3.00203 4.55413 2.9665 4.46315 2.92316 4.43084C2.9171 4.42573 2.90756 4.41893 2.90063 4.41893C2.90063 4.41893 2.89976 4.41893 2.8989 4.41893L2.89976 4.41808Z" fill="white"/>
<path d="M3.66675 5.71575C3.61475 5.71575 3.56535 5.70214 3.52375 5.67578C3.37643 5.5814 3.39203 5.37563 3.43796 5.26084C3.48736 5.13754 3.60782 5.01085 3.75515 5.02275C3.82534 5.0287 3.87128 5.06442 3.88947 5.07802C4.0108 5.1707 4.07493 5.37818 3.977 5.53803C3.92587 5.62136 3.83661 5.68514 3.73868 5.70724C3.71441 5.71234 3.69015 5.71575 3.66675 5.71575ZM3.63902 5.50232C3.65028 5.50912 3.66935 5.51082 3.69102 5.50572C3.73261 5.49637 3.77508 5.46661 3.79675 5.43175C3.83834 5.36372 3.80194 5.27359 3.75948 5.24043C3.75255 5.23533 3.74475 5.22852 3.73695 5.22852C3.71268 5.22427 3.65808 5.27699 3.63468 5.33651C3.61128 5.39518 3.60869 5.48361 3.63902 5.50317V5.50232Z" fill="white"/>
</g>
<defs>
<clipPath id="clip0_227_2731">
<rect width="18" height="18" fill="white"/>
</clipPath>
</defs>
</svg>
