<svg width="141" height="58" viewBox="0 0 141 58" fill="none" xmlns="http://www.w3.org/2000/svg">
<g filter="url(#filter0_d_3405_2722)">
<path d="M7.93319 30.0486L7.89137 30.0901C7.93319 30.0486 7.93319 30.0486 7.93319 30.0072V29.8C8.39319 27.3554 9.27135 24.9522 10.1495 22.5904C11.0695 20.1043 11.9477 17.6597 13.1186 15.2979C14.2058 13.0605 15.4603 10.8645 16.8821 8.83417C18.1367 6.96962 19.6421 4.93933 21.5657 3.6963C22.1511 3.53056 22.7366 2.90905 23.4893 3.03335C24.242 3.15765 24.242 3.94491 24.0748 4.69073C24.2838 4.11065 24.4093 3.48913 23.9075 3.07479C23.2384 2.57757 21.9421 3.36483 21.3984 3.73774C21.1475 3.8206 20.8966 3.98634 20.6875 4.15208C20.813 4.02778 20.9803 3.90347 21.1893 3.77917L20.9803 3.86204L21.5657 3.53056C22.2348 3.15765 23.7402 2.32896 24.242 3.40626C24.6184 4.27638 24.0329 5.72659 23.7402 6.55528C23.1966 7.96405 22.5275 9.28995 21.8166 10.6159C21.9421 10.3258 22.4439 9.20708 22.4439 9.20708C22.1511 9.16565 20.813 12.2318 20.5621 12.3147H20.6039C20.4366 12.439 20.3112 12.5633 20.3112 12.6047C20.2275 13.1019 20.813 12.9776 21.1475 12.9362C22.5693 12.7704 24.4093 11.5688 25.3293 10.533C26.3329 9.41426 26.7093 7.71544 26.7093 6.2238V6.18237C26.6674 3.36483 24.702 -0.198539 21.3148 0.00863334C19.433 0.0915036 17.6767 1.91462 16.464 3.15765C15.5858 4.15208 14.7494 5.22938 13.9967 6.30667C13.6622 6.80388 13.3277 7.25966 13.0349 7.75688C12.7004 8.21266 12.0313 8.91704 11.864 9.45569C11.864 9.45569 12.0731 9.20709 12.2404 9.04135C11.7804 9.74573 11.3622 10.4916 10.9441 11.1959C10.9022 11.1545 11.195 10.5744 11.195 10.5744C10.8186 10.4916 9.10408 13.8892 8.895 14.2621C8.14228 15.6294 7.4732 16.9968 7.01321 18.447C6.5114 20.0629 5.84232 21.596 5.34051 23.1705C5.0896 23.9578 4.8387 24.7036 4.67143 25.4908C4.58779 25.8637 4.50416 26.1952 4.46234 26.5681C4.46234 26.6096 4.3787 27.2725 4.46234 27.1896C4.3787 27.4797 4.3787 27.8526 4.33689 28.1426C4.33689 28.1426 4.33689 27.4382 4.3787 27.3554C4.21143 27.5625 4.33689 28.3498 4.29507 28.4327C4.08598 30.0072 3.75144 31.6646 4.29507 33.1976C5.00597 35.3108 6.7623 37.051 8.68591 38.1698C9.68953 38.7913 11.0277 39.4957 12.2822 39.4128C13.7458 39.3299 15.1676 38.1283 16.2549 37.2582C19.433 34.6064 22.3184 30.8773 22.862 26.651C22.9039 26.361 23.113 24.9107 22.6111 24.8693C22.1511 24.8279 21.8166 25.8223 21.6493 26.0709C20.3948 28.1012 18.9312 30.0072 17.3003 31.7474C15.6276 33.5705 13.5367 35.518 10.9859 36.098C10.6513 36.1809 10.275 36.2224 9.89862 36.2224C9.39681 36.1809 8.93681 36.0566 8.56045 35.6837C8.35137 35.4765 8.14228 34.7721 7.89137 34.6478C7.89137 34.4407 7.84956 34.2335 7.80774 34.1092L7.68229 33.8606C7.64047 32.6175 7.68229 31.4574 7.89137 30.1729V30.1315C7.89137 30.0901 7.93319 30.09 7.93319 30.0486ZM15.2931 9.78717C13.6622 12.439 12.2822 15.1736 10.9022 17.9912C10.1077 19.6486 9.31317 21.3474 8.68591 23.1291C9.56407 20.353 10.6095 17.7011 11.864 15.0493C13.3695 11.8589 15.3767 8.7513 17.7603 6.18237C16.7985 7.34253 15.9622 8.66844 15.2931 9.78717ZM19.6003 5.22938C19.0148 5.80946 18.4712 6.47241 17.9694 7.09393C18.7639 6.05806 19.6003 5.02221 20.6457 4.19351C20.2694 4.52499 19.893 4.93933 19.6003 5.22938ZM23.8657 5.56085C23.9493 5.31224 24.0329 5.0222 24.0748 4.69073C23.9911 5.06364 23.8238 5.43655 23.8238 5.72659C23.8657 5.64372 23.8657 5.60229 23.8657 5.56085Z" fill="white"/>
<path d="M44.1063 23.0462C44.1063 23.0462 44.1481 23.0876 44.1063 23.0048C43.8972 22.7147 43.6045 22.9219 43.3118 23.0048C42.0991 23.2534 40.8446 23.5434 39.59 23.7506C40.05 22.2589 40.51 20.6844 40.6773 19.1514C40.7609 18.5713 40.8027 17.9498 40.6773 17.3697C40.5937 16.9968 40.4682 16.6239 40.2591 16.2924C40.2591 16.2924 39.7573 15.6709 39.8828 16.0023L39.8409 15.9609L39.6737 15.6294L39.8409 15.7952C39.8828 15.5466 39.1719 15.0908 39.1719 15.0908C38.1264 14.0549 36.7046 13.2677 35.2828 14.0549C34.4047 14.5521 33.6938 15.3808 33.1083 16.2095C32.8992 16.4995 32.6901 16.831 32.5229 17.1625C32.3556 17.494 32.1047 18.5713 31.8538 18.737C31.6447 18.9027 31.0174 18.9442 30.7247 19.1099C30.3065 19.2757 29.9302 19.4828 29.5956 19.7314C28.8011 20.2286 28.1738 20.933 27.5884 21.6374C26.5848 22.9633 26.083 24.455 25.3721 25.7809C24.0339 28.3084 25.4975 31.6231 27.9648 32.8247C28.7593 33.1976 29.6793 33.3634 30.5156 33.2805C31.3938 33.1562 32.2301 32.7004 32.8992 32.2032C33.5265 31.7474 34.9065 30.9187 35.1574 30.2144C35.1574 30.1729 35.0737 30.2144 34.9483 30.3387L36.161 28.9299C36.2028 28.9713 35.8683 29.3857 35.8683 29.3857C36.161 29.51 37.6664 27.3139 37.8337 27.1482C38.1264 26.651 38.4191 26.1123 38.7537 25.6151C39.0464 25.2422 38.9628 25.2837 39.3809 25.1179C39.3391 25.1594 39.8828 24.9936 39.9664 24.9936C40.4264 24.9107 45.319 24.5793 44.1063 23.0462ZM29.6375 31.416H29.5956C26.1248 31.9132 30.1393 24.6207 30.2229 24.2064L29.972 24.5793C30.5993 23.3362 31.1847 22.3418 31.4774 22.0103C31.9374 24.0821 34.1956 24.8693 36.0355 25.1179C34.8228 27.5211 32.5647 30.8773 29.6375 31.416ZM37.8755 19.9386C37.5828 21.0988 37.3319 22.6318 36.7046 23.6677C36.4955 24.0821 36.621 23.9578 36.2028 24.0406C35.9519 24.1235 35.4083 24.0406 35.1574 23.9992C34.6974 23.9578 34.1538 23.8749 33.8192 23.5848C33.2338 23.0876 33.3174 22.3004 33.401 21.596C33.4847 20.8916 33.6938 20.2287 33.9447 19.5657C34.0701 19.3171 34.8647 17.9912 34.7392 17.7426C34.6974 17.6183 34.2374 18.3641 34.1956 18.4055C34.4465 17.9498 34.6974 17.7011 34.9065 17.4111C34.8647 17.4111 34.9065 17.3697 34.9483 17.2868V17.3282L34.9901 17.2454C34.9901 17.2454 34.9901 17.2039 35.0319 17.2039C35.6592 16.3752 37.2064 14.5107 38.0428 15.7952C38.67 16.8725 38.0846 18.9027 37.8755 19.9386ZM34.9901 17.2454L35.0319 17.2039C35.0319 17.2454 34.9901 17.2454 34.9901 17.2454Z" fill="white"/>
<path d="M65.9194 23.2534V23.2119C65.6685 21.8446 63.7867 24.1235 63.5358 24.3307C62.3231 25.6566 61.194 27.1068 60.1067 28.557C59.0195 30.0486 57.9741 31.5403 56.845 33.0319C56.3013 33.7777 55.7577 34.4821 55.1305 35.1451C54.9214 35.3937 54.4196 36.098 54.0432 36.098C52.5796 36.098 53.7087 30.2558 53.8759 29.3442C54.1268 27.7283 54.2523 25.5737 55.2977 24.2892C55.5486 23.9578 58.3922 20.353 58.3922 20.353C58.3086 20.3115 57.9741 20.7259 57.765 20.9745L59.5631 18.5713L59.6886 18.4055H59.7304H59.6886L60.0231 17.9498C60.0649 17.9912 60.0231 18.0741 59.9813 18.1569L60.3577 17.7426L61.4449 16.3338C62.2394 15.2151 62.9922 14.0135 63.7031 12.8533C64.8321 10.9473 66.3794 8.21266 65.543 5.89233C64.9158 4.19351 62.6158 3.86204 61.0685 4.44212C59.9395 4.85647 58.9777 5.72659 58.1831 6.63815C57.765 7.1768 57.3468 7.75688 56.9704 8.37839C56.845 8.54413 56.3014 9.87004 56.1759 10.0358H56.2177C55.9668 10.4916 55.7159 10.9473 55.5486 11.4031C55.6323 11.0716 55.8414 10.4087 56.0086 10.2844C55.6741 10.533 55.3814 11.7346 55.2977 11.8589C53.7087 15.2979 52.3287 18.7784 51.3251 22.4247C50.196 21.1402 48.3978 18.9442 46.4324 19.7314C44.8015 20.3944 43.5888 22.0932 42.7525 23.5848C41.9998 24.9107 41.7907 26.2781 41.247 27.5626C40.2852 29.7586 39.8253 34.2749 43.087 34.9379C44.0906 35.1451 45.0106 34.5235 45.8052 33.9849C47.227 32.949 48.5651 31.7474 49.8196 30.5044C49.6105 32.7004 49.1506 36.0152 50.9487 37.7554C53.165 39.9929 55.3814 36.9682 56.7195 35.3108C58.434 33.1562 59.7722 30.753 61.4867 28.6813C62.3231 27.6869 63.1594 26.6924 64.0376 25.7809C64.7067 25.1179 66.0448 24.2892 65.9194 23.2534ZM50.5305 25.988C50.4887 26.1123 50.4887 26.1952 50.4887 26.1952C50.3214 27.1896 50.3214 28.0598 49.6105 28.7642C48.9833 29.4271 48.3142 30.0486 47.6451 30.6701C47.0179 31.2502 45.5124 32.949 44.5506 32.8662C43.3797 32.7419 44.2579 30.09 44.8434 28.4741C44.2161 30.1315 43.2125 32.8247 44.5924 32.9076C44.9688 32.949 45.5961 32.6176 46.1397 32.1618C45.6379 32.6176 44.8015 33.2391 44.2997 32.9905C43.3379 32.5761 44.1743 30.2144 44.3415 29.5514C44.8852 27.6454 45.6797 25.8223 46.5997 24.0821C47.0597 23.2119 47.7288 21.8032 48.6069 21.7203L48.3978 21.8446C48.4397 21.8032 48.4815 21.8032 48.5233 21.8032C48.816 21.7203 49.1087 21.9275 49.3178 22.0932C49.8615 22.4661 50.196 23.1705 50.5724 23.7091C50.9905 24.3721 50.6978 25.0765 50.5305 25.8223V25.988ZM57.2632 16.4167C57.2632 16.3752 57.2632 16.2924 57.305 16.2509V16.2095C57.3468 16.0852 57.3886 16.0438 57.3886 16.0438V16.0023C58.3504 13.3505 59.3958 10.6987 60.9013 8.29553C61.2776 7.67401 62.3649 5.76802 63.3267 6.30667C63.7031 6.51384 63.7867 7.05249 63.7867 7.4254C63.954 9.91147 61.9467 12.8533 60.6922 14.8422C59.2286 17.1625 57.5977 19.4414 55.8832 21.5546L56.8032 20.6016L57.6395 19.5657L55.5068 22.3004L55.2141 22.6733L55.0468 22.839C55.0886 22.5904 55.2977 22.3418 55.5068 22.0518C55.4232 22.1346 55.3396 22.2175 55.2977 22.3004C55.8414 20.5187 56.4268 18.737 57.0541 16.9553C57.0122 16.9968 57.0541 16.9139 57.0959 16.7482L57.2213 16.541C57.2213 16.4995 57.2213 16.4581 57.2632 16.4167ZM53.7505 19.8143C53.6668 20.0215 53.4159 20.9745 53.2905 21.0988C53.2905 21.1402 53.2487 21.1816 53.2069 21.1816C53.5414 20.7673 53.3323 20.2286 53.4996 19.7314C53.5832 19.4828 54.0014 19.0271 54.085 18.6956C54.085 19.0271 53.8759 19.6071 53.7505 19.8143ZM47.1015 31.2917C48.1469 30.3801 49.1506 29.4271 50.1124 28.4327C50.0287 28.9713 48.7324 29.8829 48.2724 30.2972C47.7288 30.8359 47.1015 31.3745 46.4742 31.8717H46.4324L47.1015 31.2917ZM54.5032 16.0438C54.3359 16.541 54.1268 16.9968 53.8759 17.4525C54.085 16.831 54.2105 16.2095 54.5032 15.6294C54.7541 15.1736 55.0468 14.5936 55.2559 14.0549C55.0468 14.7179 54.7123 15.4223 54.5032 16.0438ZM57.2213 16.541L57.0541 16.9553C57.0541 16.9139 57.0959 16.831 57.0959 16.7482L57.2213 16.541ZM48.1888 22.0103C48.0215 22.1346 47.896 22.3004 47.8542 22.3004C47.9379 22.3004 48.0633 22.1346 48.1888 22.0103ZM49.3596 21.9275C49.4433 21.9689 49.5269 22.0103 49.6105 22.0932L49.3596 21.9275ZM57.6395 21.1816C57.6395 21.1402 57.6813 21.0988 57.7231 21.0573C57.6813 21.1402 57.6395 21.1816 57.6395 21.1816ZM57.7231 21.0573L57.765 20.9745C57.765 21.0159 57.7231 21.0573 57.7231 21.0573Z" fill="white"/>
<path d="M78.8652 23.1291C78.8652 23.1705 78.8652 23.1705 78.8233 23.1291V23.0876C78.1543 21.9689 77.2761 23.502 76.8997 24.0406C76.1889 24.9936 75.5198 25.9052 74.7671 26.7753C74.1398 27.5211 73.4707 28.2669 72.9689 29.0542C72.9689 29.1371 72.8853 29.3442 72.8853 29.3442C72.718 29.5928 72.4671 29.8 72.258 30.0486C71.8816 30.4215 71.5053 30.8359 71.0871 31.2088C70.4598 31.7889 66.9472 35.0622 66.4872 32.949C66.2363 31.9132 66.5708 30.6287 66.7799 29.6343C66.9054 29.0956 67.0308 28.5984 67.1144 28.0598C67.1981 27.6454 67.0726 27.2311 67.2817 26.8167C67.4072 26.5681 67.449 26.6096 67.7417 26.5267L68.4526 26.2781C68.9126 26.1123 69.3726 25.9466 69.7908 25.698C70.418 25.3251 71.0035 24.8693 71.5471 24.4135C72.8434 23.3362 74.2234 22.0518 74.7671 20.4358C75.0598 19.5243 75.1016 18.5298 74.5162 17.7426C73.9725 17.0382 73.0525 16.6653 72.2162 16.4995C69.958 16.0852 68.2435 17.3697 66.9472 19.0685C65.3581 21.0159 64.229 23.4191 63.6854 25.8637C63.3927 27.0653 63.2254 28.2669 63.0163 29.51C62.8072 30.753 62.6818 31.9132 63.3509 33.0733C63.3091 32.659 63.2254 32.2861 63.2254 31.9132C63.2254 31.706 63.3091 31.4988 63.3091 31.3331C63.3091 31.2502 63.2254 31.0016 63.2254 30.8773C63.2254 30.5044 63.3091 30.2144 63.3927 29.8414C63.4345 29.4685 63.3927 29.0956 63.4345 28.7227C63.4763 28.3084 63.6436 27.9769 63.8109 27.604C63.9363 27.2725 63.9781 26.9825 64.1036 26.651C64.229 26.361 64.3127 26.0295 64.4381 25.698C64.4799 25.4908 64.689 25.2422 64.8145 24.9936C64.689 25.3665 64.4381 25.698 64.3545 26.0295C64.229 26.5267 64.3127 27.0653 64.2709 27.5626C64.1872 28.1012 64.02 28.6398 63.9363 29.2199C63.8527 29.7586 63.6018 30.2558 63.5181 30.7944C63.4345 31.2917 63.2672 31.6646 63.3091 32.1618C63.3091 32.4518 63.3509 32.7419 63.3927 32.9905C63.4345 33.3219 63.6436 33.5291 63.8527 33.7777C64.5636 34.6064 65.5254 35.2694 66.6126 35.5594C67.3653 35.7666 68.0344 35.7251 68.7453 35.3522C69.7489 34.8136 70.6271 33.9849 71.3798 33.1976C72.0907 32.4104 72.6344 31.5403 73.2616 30.7116C73.8471 29.9657 74.558 29.2614 75.1434 28.5155L77.4016 25.6151L78.6979 23.9163C78.907 23.6677 79.0324 23.4605 78.8652 23.1291ZM68.4944 23.5848C68.5362 23.502 68.5362 23.4605 68.5362 23.4605C69.1635 22.1346 69.6235 20.7259 70.5017 19.4414L71.2544 18.447C71.4217 18.2398 71.7144 17.8669 72.0071 17.784C72.6344 17.6597 72.8016 18.737 72.7598 19.1514L72.5925 20.0215C72.5507 20.2701 72.6344 20.4358 72.5925 20.643C72.5089 20.8916 72.2998 21.0159 72.1744 21.2231L71.4635 22.1346C70.5017 23.2534 69.289 24.2064 67.9508 24.9107C68.1599 24.455 68.2853 23.9992 68.4944 23.5848Z" fill="white"/>
<path d="M101.511 10.9888C101.344 9.66286 99.295 8.66844 98.1659 9.45569C97.2459 10.0772 96.4096 11.776 95.7405 12.7704L91.6424 18.9027C91.0151 19.8557 90.3878 20.8087 89.7188 21.7203C89.5515 22.0103 87.9624 24.455 87.9624 24.455C88.1297 24.4964 88.5061 23.9163 88.5897 23.8334C87.4606 25.408 85.997 27.0653 84.617 28.6398C84.157 29.2199 81.3971 32.8247 80.3935 32.3689C80.0589 32.2032 79.9753 31.6646 79.9335 31.3745C79.5989 29.1785 80.4353 26.9825 80.6862 24.8693L80.5189 25.2837L80.7698 24.2478C80.7698 24.3721 80.728 24.4964 80.728 24.6207L80.7698 24.3721L80.6444 25.6151C81.2298 23.1291 82.0662 20.7259 83.028 18.4055C83.2789 17.8255 85.7043 11.8175 86.2061 11.2788C86.1225 11.3202 85.997 11.486 85.8716 11.6517C86.6661 10.2015 87.5024 8.83417 88.4642 7.50827C88.2552 7.83975 87.8788 8.46126 87.8788 8.46126C88.0461 8.5027 89.7188 6.2238 89.7188 5.9752C89.7188 5.93376 89.5933 6.01663 89.4679 6.0995C89.886 5.56085 90.1788 5.27081 89.8442 4.35925C89.3424 3.32339 87.8788 2.03892 86.6661 2.66044C86.4152 2.82618 86.2479 3.03335 86.0807 3.24052C85.2025 4.35925 84.4916 5.80946 83.9061 7.05249C83.6971 7.54971 83.5298 7.63257 83.1952 8.00548C82.6516 8.627 82.3589 9.45569 81.9825 10.1601C81.2298 11.6517 80.6444 13.2262 79.9753 14.7593C79.3062 16.1681 78.7626 17.6183 78.3026 19.1099C78.0935 19.69 77.9262 20.2701 77.759 20.8502C77.5917 21.4303 77.0062 22.5075 77.0899 23.1291L77.3408 22.5904C77.1317 23.2948 76.9644 24.0406 76.7972 24.7864C76.7553 24.7864 76.839 24.2478 76.839 24.2478C76.6717 24.2478 76.2953 26.0709 76.2117 26.3195C76.0444 27.1896 75.919 28.0598 75.8354 28.9713C75.7935 29.9243 75.8354 30.7944 76.2953 31.6646C77.1735 33.1976 78.7626 34.6893 80.4771 35.2279C80.7698 35.3108 81.1044 35.3937 81.3971 35.3522C81.6898 35.3108 81.9825 35.1865 82.1916 34.9793C82.3589 34.8964 83.028 34.1921 82.568 34.5235L83.3625 33.7777C83.3625 33.7777 82.9862 34.2335 82.8607 34.3164C83.0698 34.2335 83.5298 33.612 83.5298 33.612C84.9098 32.1203 86.2897 30.6701 87.5443 29.0542C88.8406 27.3139 90.0115 25.408 91.1824 23.5434C90.8478 24.5378 90.7642 25.5323 90.4715 26.5267C90.3042 27.0653 90.1369 27.604 90.0115 28.1426C89.9279 28.3498 89.8442 29.3442 89.9279 29.2614C89.9279 29.3857 89.9279 29.4685 89.886 29.5514C89.886 29.51 89.886 29.4685 89.8442 29.4271C89.7188 29.4685 89.7188 30.7116 89.6769 30.9187C89.5097 31.4988 89.2588 32.0375 89.1751 32.7004C88.9661 34.4407 89.0915 36.471 90.1788 37.9626C90.8478 38.8742 91.8515 39.3714 92.9805 39.4542C94.1932 39.4957 94.8623 38.8327 95.4896 37.9212C95.9078 37.2996 96.2841 36.761 96.535 36.0566C96.7441 35.4765 97.1623 34.3578 96.9114 33.7777C96.7441 33.4048 96.6605 33.3634 96.3259 33.5291C95.8659 33.6948 95.3223 34.6893 95.0296 35.0622C94.6114 35.518 93.7751 36.6781 93.0642 36.761C92.646 36.8024 92.7296 36.7196 92.646 36.2224C92.6042 35.9323 92.6042 33.9849 92.646 33.9435C92.5205 34.1092 92.4787 34.2749 92.4369 34.4407C92.6042 33.0733 93.1896 31.416 93.6078 29.9657C94.1096 28.2669 94.486 26.5681 94.946 24.8693C95.4478 23.1291 96.1169 21.3888 96.8278 19.7314C96.995 19.3585 98.8768 15.2565 99.1695 14.8836C98.8768 15.0908 97.3714 18.2398 96.8696 19.2757C97.8732 16.9139 99.0441 14.635 100.508 12.4804C100.55 12.4804 100.09 13.1848 100.173 13.1848C100.299 13.2677 101.302 11.7346 101.219 11.6932C101.177 11.6932 101.135 11.6932 101.093 11.7346C101.302 11.5274 101.553 11.4031 101.511 10.9888ZM90.5969 30.6701C90.2206 32.3689 89.8024 34.6478 90.1369 36.3467C89.7606 34.4407 89.886 32.2861 90.2206 30.3801C90.4715 28.8056 90.9315 27.3554 91.4751 25.9052C91.0151 27.5625 90.9733 29.0128 90.5969 30.6701ZM83.6134 14.925C84.7843 12.1489 86.457 9.62143 88.2133 7.21823C86.457 9.7043 85.0352 12.3975 83.7807 15.1736C82.8189 17.3697 81.9407 19.4828 81.3134 21.6789C81.4389 21.0988 81.5644 20.5187 81.7734 19.9386C82.2753 18.2398 82.9443 16.5824 83.6134 14.925ZM82.6516 18.9442C83.4043 16.9139 84.2825 14.8836 85.2861 12.8948C84.3661 14.8007 83.1116 17.784 82.6516 18.9442ZM95.9078 21.6789C95.7823 22.0518 95.615 22.4247 95.4478 22.7562L96.2005 20.8502L95.9078 21.6789ZM85.8716 11.6932V11.6517V11.6932ZM89.0079 6.2238C89.0079 6.26524 88.9661 6.30667 88.9242 6.30667C88.9661 6.30667 89.0079 6.26524 89.0079 6.2238Z" fill="white"/>
<path d="M122.986 23.0876C122.735 23.1291 120.56 23.792 120.686 24.1235C120.686 24.1649 120.769 24.2064 120.811 24.2064C120.1 24.4964 119.18 24.5378 118.469 24.9936C117.675 25.5323 116.922 26.0709 116.086 26.5267C116.838 25.2422 117.549 23.8749 118.009 22.5075C118.177 22.0103 119.138 18.9442 118.511 18.6127C118.427 18.5713 118.386 18.9442 118.344 19.1514C118.386 17.494 117.842 14.9665 115.584 14.8007C114.204 14.7179 112.908 16.4167 112.155 17.3282C110.44 19.4828 108.935 21.8032 107.429 24.0406C107.011 24.6621 102.83 31.3745 102.83 31.3745C102.83 31.3745 103.122 30.9602 103.499 30.4215C103.122 31.043 102.746 31.706 102.411 32.3689C102.579 31.7474 104.168 26.8167 105.171 23.9163C105.255 23.792 105.297 23.6263 105.339 23.502L105.59 22.7976V22.839C105.966 21.7203 106.342 20.6016 106.677 19.4414C106.677 19.5657 106.509 20.1872 106.551 20.1872C106.802 20.2287 107.137 18.4884 106.969 18.4884L106.844 18.6956C106.969 18.0741 107.179 17.784 106.802 17.0796C106.509 16.4581 106.008 15.878 105.297 15.7123C103.917 15.3394 103.248 16.4581 103.331 17.5354C103.331 17.7011 103.54 17.784 103.54 17.9498C103.54 18.1569 103.331 18.5298 103.29 18.6956C102.997 19.5657 102.788 20.3944 102.453 21.2231C102.286 21.6789 100.739 25.988 100.739 25.988C100.822 25.9466 100.864 25.8637 100.906 25.7809C100.78 26.1538 100.655 26.5267 100.488 26.8996C100.446 26.8582 100.613 26.5681 100.53 26.5681C100.111 26.4853 99.066 29.9657 98.9823 30.2972C98.8151 31.0845 98.606 31.8303 98.3132 32.6175C98.1878 33.0319 98.0205 33.4462 97.8951 33.902C97.8951 33.9435 97.686 34.9379 97.8951 34.565C97.8533 34.6893 97.8114 34.7721 97.8114 34.855C97.8114 34.8136 97.7696 34.7721 97.7696 34.7307C97.6442 34.7721 97.5605 35.6423 97.5605 35.6837C97.3933 36.1395 97.1842 36.471 96.9751 36.8853C96.4315 38.2112 96.1387 39.6614 95.9297 41.0702C95.5951 43.2248 94.5915 46.4567 95.6787 48.4455C96.0551 49.1499 97.226 50.6001 98.146 49.73C98.5642 49.3156 98.5642 48.3626 98.606 47.8654C98.8569 46.4981 99.066 45.0893 99.3587 43.722L99.735 41.816C99.7769 41.7331 100.111 40.2001 99.9859 40.2415C99.9023 40.3244 99.8187 40.4487 99.7769 40.573C99.986 39.91 100.279 39.2885 100.53 38.5841C100.864 37.5897 101.115 36.6367 101.617 35.7251C102.202 34.8136 102.704 33.8192 103.248 32.9076C103.666 32.1618 104.042 31.2088 104.502 30.5873C104.628 30.4215 104.879 30.3387 105.088 30.1729C105.506 29.7171 105.799 29.0956 106.133 28.5984C106.76 27.604 107.304 26.6096 107.973 25.698C108.266 25.2837 111.611 20.643 111.946 20.353C111.862 20.3944 111.778 20.4358 111.695 20.5187C112.029 20.1043 112.406 19.7314 112.74 19.4C112.782 19.4414 112.489 19.69 112.531 19.7314C112.615 19.7729 114.538 18.2812 114.873 18.2398C115.793 18.0741 115.458 19.8143 115.333 20.2701C115.124 21.2231 114.58 22.1346 114.12 22.9633C113.869 23.4191 113.618 23.8334 113.409 24.2892C113.368 24.3307 113.033 25.1179 113.158 25.035L112.908 25.408C112.991 25.2837 113.033 25.1179 113.033 25.1179C112.866 25.1179 112.657 25.8223 112.615 25.9466C112.364 26.361 112.029 26.6924 111.695 27.0239C110.817 28.0183 110.022 29.0542 109.144 30.0072C108.475 30.7116 107.597 31.9546 106.593 32.2032C105.882 32.3689 105.339 31.996 105.715 33.1148C105.966 33.902 106.886 35.7251 107.889 35.7251C108.809 35.7251 109.939 34.3578 110.482 33.7777C111.109 33.0733 111.82 32.4104 112.489 31.6646C112.657 31.416 114.58 29.1371 114.873 29.0128H114.831C115.249 28.8056 115.668 28.9713 116.253 28.557C116.588 28.3084 116.755 28.0598 117.131 27.8112C117.424 27.6454 117.549 27.4382 117.675 27.3139C117.675 27.3139 117.675 27.3554 117.717 27.3554C118.135 26.941 118.72 27.0653 119.264 26.6924C119.933 26.2366 120.769 25.6566 121.355 25.1179C122.107 24.455 123.153 24.0821 123.487 22.9633C123.32 23.0048 123.111 23.0048 122.986 23.0876ZM101.575 27.3139V27.3554C101.533 27.894 101.157 28.5155 100.948 29.0128C100.655 29.8 100.404 30.5873 100.153 31.3745C99.6096 33.0319 98.9823 34.6893 98.3132 36.2638C97.7696 37.5897 97.2678 39.0399 96.8915 40.4901C97.3514 38.4598 98.1042 36.471 98.6896 34.565C99.2332 32.8247 100.07 31.1259 100.739 29.4271C100.822 29.2199 101.617 27.5626 101.533 27.2311C101.575 27.2725 101.575 27.3139 101.575 27.3139ZM103.415 28.557C103.29 29.0542 103.164 29.51 102.997 29.9243C103.122 29.51 103.248 29.0128 103.415 28.557ZM109.144 21.7617L108.349 22.9219C108.6 22.549 108.851 22.1346 109.144 21.7617ZM115.96 26.7753C116.002 26.651 116.211 26.6096 116.337 26.5267L115.96 26.7753ZM105.966 21.9275C105.924 21.9689 105.882 22.0932 105.84 22.2589L105.966 21.9275ZM105.673 22.6318L105.84 22.2589L105.673 22.6318ZM107.848 23.6677V23.6263C107.889 23.5848 107.889 23.5848 107.889 23.5434C107.931 23.502 107.889 23.5848 107.848 23.6677ZM105.673 22.6318C105.673 22.7147 105.631 22.7562 105.59 22.7976L105.673 22.6318ZM96.8078 40.863C96.8078 40.8216 96.8078 40.8216 96.8496 40.7801C96.8496 40.8216 96.8496 40.8216 96.8078 40.863ZM103.666 28.0598C103.666 28.1012 103.624 28.1012 103.624 28.1012L103.666 28.0598Z" fill="white"/>
<path d="M136.991 23.6263C136.865 23.0462 136.531 22.9633 136.112 23.1291C135.318 23.502 134.523 24.3307 133.771 24.8279C132.056 25.9052 130.342 26.7753 128.502 27.6869C128.502 27.6454 128.46 27.5625 128.418 27.4382C128.46 27.6454 128.418 27.7283 128.376 27.7697C127.958 25.988 127.54 24.2064 127.205 22.3832C127.372 23.1705 127.749 24.4964 128.042 25.6151C127.665 23.8749 127.205 21.7203 127.247 21.7203C127.163 21.7617 127.163 21.8446 127.163 21.9275C127.08 21.4303 126.954 20.8087 127.038 20.2701C127.08 19.6486 127.414 19.1099 127.623 18.5298C127.582 18.8199 127.498 19.1928 127.498 19.1928C127.749 19.2342 127.916 17.7011 127.916 17.5354C127.874 17.2868 127.331 16.4995 127.331 16.7067C126.202 15.6709 123.985 17.9498 123.651 18.9442C123.4 19.6071 123.4 20.3115 123.442 21.0159C123.483 21.7203 123.693 22.3418 123.902 23.0048C124.027 23.502 123.86 23.8334 123.902 24.3721C123.985 25.2008 124.278 26.0295 124.445 26.8167C124.613 27.4382 125.156 28.6813 125.031 29.2614C124.947 29.8414 123.693 30.3387 123.149 30.6701C122.438 31.1259 121.727 31.6646 121.016 32.2032C119.762 33.1562 118.424 34.3578 117.922 35.8909C117.838 36.098 117.545 37.0096 117.838 37.1753C117.88 37.2168 118.005 36.5124 118.047 36.4295C117.504 39.1642 120.222 40.4901 122.773 40.5315C125.658 40.6144 127.665 38.957 128.669 36.3881C129.087 35.2694 129.212 34.1092 129.171 32.949C129.171 32.1618 129.087 31.416 128.962 30.6701C128.878 30.0072 128.794 30.0486 129.254 29.6757C129.589 29.4271 130.091 29.2614 130.425 29.0956C131.763 28.3912 132.976 27.5625 134.189 26.6924C135.067 26.0709 137.158 24.9936 136.991 23.6677V23.6263ZM120.096 37.8797C119.009 37.5483 120.096 35.8494 120.473 35.3108C121.1 34.4821 122.02 33.8606 122.856 33.2805L124.111 32.4518C124.236 32.3689 125.031 31.7474 124.78 31.8303L125.282 31.5403L124.989 31.7889C125.073 31.7474 125.198 31.706 125.282 31.6231C125.323 32.6176 125.323 33.612 125.031 34.6064C124.989 34.7721 124.194 36.4295 123.86 36.761L124.069 36.5953C123.693 37.051 123.274 37.424 122.773 37.714C122.773 37.6726 123.149 37.424 123.107 37.3825L121.936 37.8383C121.351 37.9626 120.682 38.0869 120.096 37.8797ZM125.365 39.0813C124.278 39.5371 123.233 39.7443 122.103 39.7857C124.153 39.6614 126.285 38.667 127.498 36.9682C127.038 37.8797 126.453 38.5841 125.365 39.0813ZM128.418 27.3139C128.376 27.0239 128.292 26.6096 128.167 26.1538C128.251 26.6096 128.334 27.0653 128.418 27.3139ZM128.962 31.6231C128.92 31.5817 128.92 31.4988 128.92 31.416C128.92 31.4988 128.962 31.5817 128.962 31.6231Z" fill="white"/>
</g>
<defs>
<filter id="filter0_d_3405_2722" x="0" y="0" width="141" height="58" filterUnits="userSpaceOnUse" color-interpolation-filters="sRGB">
<feFlood flood-opacity="0" result="BackgroundImageFix"/>
<feColorMatrix in="SourceAlpha" type="matrix" values="0 0 0 0 0 0 0 0 0 0 0 0 0 0 0 0 0 0 127 0" result="hardAlpha"/>
<feOffset dy="4"/>
<feGaussianBlur stdDeviation="2"/>
<feComposite in2="hardAlpha" operator="out"/>
<feColorMatrix type="matrix" values="0 0 0 0 0 0 0 0 0 0 0 0 0 0 0 0 0 0 0.25 0"/>
<feBlend mode="normal" in2="BackgroundImageFix" result="effect1_dropShadow_3405_2722"/>
<feBlend mode="normal" in="SourceGraphic" in2="effect1_dropShadow_3405_2722" result="shape"/>
</filter>
</defs>
</svg>
